<svg xmlns="http://www.w3.org/2000/svg" viewBox="0 0 2800 2800"><title>splashscreen</title><rect x="-48" y="-44" width="2900" height="2900" style="fill:#5bc0eb"/><path d="M1583.09,1426.61a30.79,30.79,0,0,0,6.63-6.12,88.88,88.88,0,0,0,14.47-19,120.91,120.91,0,0,0,7.23-15.3,87.18,87.18,0,0,0,4.22-19,106.83,106.83,0,0,0,0-19.59c-.6-6.73-1.2-12.85-1.2-18.36v-6.73h0v-9.19a126.53,126.53,0,0,1,7.83-30c.6-2.45,1.81-4.29,3-6.74a55.59,55.59,0,0,1,3-6.12c1.21-1.83,1.81-4.28,3-6.12a22.06,22.06,0,0,0,2.42-5.51c1.8-3.67,3-6.12,4.22-9.18,2.41-4.9,4.22-8,4.22-8a54.21,54.21,0,0,0-7.84,4.29,48.47,48.47,0,0,0-8.44,5.5c-1.81,1.23-3,2.45-4.82,3.68a39.28,39.28,0,0,0-5.43,4.89l-5.42,5.51a65.21,65.21,0,0,0-5.43,6.74,86.23,86.23,0,0,0-9.65,15.91,72.49,72.49,0,0,0-6.63,20.21,17.22,17.22,0,0,0-.6,5.5l-.6,3.07v13.46c.6,7.35,1.2,13.47,1.81,19.59.6,5.51,1.81,11.63,1.81,16.53a60.17,60.17,0,0,1,0,14.69c0,4.9-1.21,9.8-1.81,14.08a74.65,74.65,0,0,1-2.41,12.25c-.61,3.67-1.21,7.34-1.81,9.79Q1583.09,1426.61,1583.09,1426.61Z"/><path d="M1250.33,1421.1a105.31,105.31,0,0,0-4.22-12.85l-.6-1.84a2.14,2.14,0,0,0-.6-1.22V1404h0v-1.22c0-1.23-.61-2.45-.61-3.67a7.93,7.93,0,0,0-.6-3.68,65.19,65.19,0,0,1,0-15.3,162.37,162.37,0,0,1,1.21-16.53c1.2-11,3-23.26,3-36.73,0-6.73,0-12.86-.6-20.2-.61-6.73-1.81-13.47-3-20.2q-2.71-10.11-5.42-20.2a177.77,177.77,0,0,0-7.84-19l-9-18.37c-1.81-3.06-3-6.12-4.82-9.18s-3.62-6.12-5.43-8.57c-3.62-5.51-6.63-11-9.64-16.53s-6-11-8.44-16.52-4.22-11-6-16.53-3-11-5.43-17.76a16.89,16.89,0,0,0-3-5.5.59.59,0,0,0-.6-.62l-1.21-1.22c-.6,0-.6-.61-1.21-.61h-.6s-1.2-.62-.6,0h-1.21c-1.81,0-3.61,0-4.82.61-2.41,1.22-3.62,2.45-4.82,3.06a16.28,16.28,0,0,0-3,3.67,52.25,52.25,0,0,0-4.82,7.35,62.17,62.17,0,0,1-4.22,6.73,148.54,148.54,0,0,0-10.85,25.71c-2.41,8-4.22,14.69-6,20.82-1.2,5.51-2.41,10.4-3,13.46a28.28,28.28,0,0,0-.6,4.9h.6a35.47,35.47,0,0,1,1.81-4.28c1.2-3.07,3-7.35,4.82-12.86,2.41-5.51,4.82-12.24,8.44-19a190.08,190.08,0,0,1,13.26-23.26,55,55,0,0,1,9-11.63,8.7,8.7,0,0,1,2.41-1.84c1.21,4.9,2.42,11,3.62,16.53a106.48,106.48,0,0,0,5.43,18.37c4.82,12.24,11.45,23.87,18.08,35.5a157,157,0,0,1,9.65,17.14,161.43,161.43,0,0,1,8.44,17.76,198.33,198.33,0,0,1,12.66,36.11c1.8,6.12,2.41,12.25,3.61,18.37.6,6.12,1.21,12.24,1.21,18.36,0,12.25-.61,24.49-1.21,36.12a153.68,153.68,0,0,0,1.81,33.67c0,1.22.6,2.45.6,3.67.61,1.23.61,2.45,1.21,3.67v1.23h0v.61l.6,1.23c0,.61.6,1.22.6,1.83l.61,1.84a65.31,65.31,0,0,1,5.42,11.63c2.41,7.35,2.41,14.08.61,19.59a39.91,39.91,0,0,1-6,11.63,36.46,36.46,0,0,1-3,3.67,1.86,1.86,0,0,0,1.21-.61l.6-.61-1.2,1.22a1.84,1.84,0,0,0,1.2-.61c.6-.61,1.81-1.22,2.41-2.45a45.61,45.61,0,0,0,8.44-11c.61-1.22,1.21-3.06,1.81-4.28.6-1.84.6-3.68,1.21-5.51C1251.54,1429.06,1251.54,1425.39,1250.33,1421.1Z"/><path d="M1229.84,1434a59.74,59.74,0,0,1-7.24-5.51,84.48,84.48,0,0,1-15.67-18.37,82.82,82.82,0,0,1-7.84-14.69c-2.41-5.51-4.82-11.63-5.42-19-1.21-6.74-1.21-12.86-1.81-19.59v-25.1h0v-5.51c0-1.23-.61-2.45-.61-3.67-.6-4.9-2.41-9.8-3.61-14.7a99.4,99.4,0,0,0-6-14.08c-1.21-2.44-2.41-4.28-3-6.73a28.69,28.69,0,0,1-3-6.12,4497,4497,0,0,0-6-11c-1.81-3.06-3.61-6.12-4.82-8.57a57.44,57.44,0,0,1-4.22-8s3,1.23,8.44,3.67c2.41,1.23,5.43,3.07,9,4.9l5.43,3.67c1.81,1.23,3.61,3.07,5.42,4.29a54.94,54.94,0,0,0,6,5.51c1.81,1.84,4.22,3.67,6,6.12a98.09,98.09,0,0,1,10.85,15.3c3.62,5.51,6,12.25,7.84,19.59.6,1.84.6,3.68,1.2,5.51l.61,3.06.6,2.45v11c0,7.35-.6,13.47-.6,19.59-.61,6.12-.61,11.63-1.21,17.14,0,4.9,0,9.8,1.21,14.69.6,4.9,1.8,9.8,2.41,14.08,1.2,4.29,1.81,8.57,3,12.25a75.74,75.74,0,0,1,2.41,9.79A19.55,19.55,0,0,0,1229.84,1434Z"/><path d="M1570.43,1290.71a196.83,196.83,0,0,1,12.66-36.11c2.41-6.13,5.42-11.64,8.44-17.76,3-5.51,6-11,9.64-17.14,6.63-11,13.27-23.26,18.09-35.5a105.56,105.56,0,0,0,5.42-18.37c1.21-6.12,2.41-12.24,3.62-16.53v-.61h0c.6.61,1.81,1.23,2.41,2.45,3,3.67,6,8,9,11.63A188.91,188.91,0,0,1,1653,1186c3.61,7.35,6,14.08,8.44,19,2.41,5.51,3.61,9.8,4.82,12.86s1.81,4.28,1.81,4.28a27.83,27.83,0,0,0-.61-4.9,96.22,96.22,0,0,0-3-13.46,146.92,146.92,0,0,0-6-20.82,148.87,148.87,0,0,0-10.85-25.71,25.42,25.42,0,0,0-4.22-6.73,50.54,50.54,0,0,0-4.82-7.35c-1.21-1.22-1.81-2.45-3-3.67a9.48,9.48,0,0,0-4.82-3.06c-1.2-.61-3-.61-4.82-.61h-1.81c-.6,0-.6.61-1.2.61-.61.61-1.21.61-1.21,1.22l-.6.62a17.15,17.15,0,0,0-3,5.5c-2.41,6.13-3.61,11.64-5.42,17.76-1.81,5.51-3.62,11-6,16.53a106.61,106.61,0,0,1-8.44,16.52c-3,5.51-6.63,11-9.65,16.53-1.8,3.06-3.61,5.51-5.42,8.57a66,66,0,0,0-4.82,9.19l-9,18.36c-3,6.12-5.42,12.86-7.83,19a125.77,125.77,0,0,0-5.43,20.2c-1.81,6.73-2.41,13.47-3,20.2s-.6,13.47-.6,20.2c.6,12.86,1.8,25.1,3,36.73a153.13,153.13,0,0,1,1.21,16.53v15.3a7.82,7.82,0,0,1-.61,3.68c0,1.22-.6,2.44-.6,3.67V1404h0v1.23c0,.61,0,.61-.6,1.22l-.61,1.84a108.88,108.88,0,0,0-4.22,12.85,28.64,28.64,0,0,0-.6,12.25,18,18,0,0,0,1.21,5.51c.6,1.22,1.2,3.06,1.81,4.28a28.41,28.41,0,0,0,8.44,11c1.2,1.22,1.8,1.84,2.41,2.45a1.84,1.84,0,0,0,1.2.61,37.5,37.5,0,0,1-3-3.67,39.91,39.91,0,0,1-6-11.63c-1.81-5.51-1.81-12.25.6-19.59a65.79,65.79,0,0,1,5.43-11.63l.6-1.84c0-.61.6-1.22.6-1.84l.61-1.22v-.61h0V1404c.6-1.22.6-2.45,1.2-3.67,0-1.22.61-2.45.61-3.67a153.7,153.7,0,0,0,1.8-33.67c-.6-11.63-1.2-23.88-1.2-36.12,0-6.12.6-12.24,1.2-18.36C1568,1303,1569.22,1296.83,1570.43,1290.71Z"/><path d="M1062.83,1937.15v7.33H997.06V1830.29h63.85v7.33h-56.47v57.5h43.31v7.5h-43.31v34.53Z"/><path d="M1172.07,1937l15.88,21h-9.3l-13-17.1a55.83,55.83,0,0,1-22.94,6h-2.09a54,54,0,0,1-37.85-17.43,61.48,61.48,0,0,1,0-83.89,54.75,54.75,0,0,1,37.85-17.43h2.09a55.39,55.39,0,0,1,37.86,17.43,62,62,0,0,1,0,83.89A61.46,61.46,0,0,1,1172.07,1937Zm17.65-49.36c0-28.34-21.5-51.47-48.12-52-26.63.49-48,23.62-48,52,0,28.18,21.34,51.31,48,52C1168.22,1938.94,1189.72,1915.81,1189.72,1887.63Z"/><path d="M1267.84,1945.78c-20,0-36.25-16.61-36.25-37v-78.36h7.22v78.36c0,16.45,13.15,29.64,29,29.64s29-13.19,29-29.64v-78.36h7.22v78.36C1304.09,1929.17,1287.89,1945.78,1267.84,1945.78Z"/><path d="M1404.51,1937.15v7.33h-65.77V1830.29h63.84v7.33h-56.46v57.5h43.31v7.5h-43.31v34.53Z"/><path d="M1489.69,1936.82l-1,1a33.56,33.56,0,0,1-21.5,8.15h-.8a34.39,34.39,0,0,1-22.14-7.82,29.2,29.2,0,0,1-9.94-17.92l7.22-1.14a21.38,21.38,0,0,0,7.53,13.36c10,8.3,25.51,8.14,35.13-.49a26.57,26.57,0,0,0,7.86-20.37,23,23,0,0,0-9.46-17.91c-6.1-4.56-12-5.87-17.81-7.33-6.89-1.63-14.11-3.26-20.53-9.94-6.09-6.35-9.46-14-9.14-21.67a26.82,26.82,0,0,1,8.66-18.4,32.27,32.27,0,0,1,22.14-8.15,32.76,32.76,0,0,1,22.13,8.31,28,28,0,0,1,8,12.38l-7.38,1.14a20.32,20.32,0,0,0-5.46-8c-9.46-8.47-24.7-8.64-34.17-.49-4.17,3.91-6.41,8.47-6.57,13.52-.32,5.54,2.24,11.08,7.06,16.13s10.42,6.35,16.84,8c6.26,1.46,13.31,3.09,20.53,8.63a31.39,31.39,0,0,1,12.51,23.3A34.11,34.11,0,0,1,1489.69,1936.82Z"/><path d="M1597.48,1837.29H1565.4v107.19h-7.22V1837.29H1526.1V1830h71.38Z"/><path d="M1693.09,1937.15v7.33h-65.77V1830.29h63.84v7.33H1634.7v57.5H1678v7.5H1634.7v34.53Z"/><path d="M1773,1946.27h-2.08a54.11,54.11,0,0,1-37.86-17.43,61.51,61.51,0,0,1,0-83.89,54.11,54.11,0,0,1,37.86-17.43H1773c14.28.49,27.59,6.68,37.86,17.43a62,62,0,0,1,0,83.89C1800.56,1939.59,1787.25,1945.78,1773,1946.27Zm-1.12-111.42c-26.63.65-48,23.78-48,52,0,28.35,21.33,51.48,48,52.13,26.63-.65,48.12-23.78,48.12-52.13C1820,1858.63,1798.48,1835.5,1771.85,1834.85Z"/><path d="M1399.23,842c-235.1,0-426.8,194.67-426.8,433.41s191.1,433.41,426.2,433.41h426.79V1275.41C1826,1036.05,1634.33,842,1399.23,842Zm-366.52,433.41c0-205.07,164.57-372.19,366.52-372.19s365.91,166.5,366.51,371c-4.22,68.57-19.29,124.27-40.39,170.19-38.58,75.9-101.27,137.12-178.43,171.4-58.47,24.49-111.52,30-135,31.22-4.22,0-8.44.61-12.66.61C1197.28,1647.6,1032.71,1480.48,1032.71,1275.41Z"/><path d="M1712.69,1258.88a217.63,217.63,0,0,0-10.85-56.32c-1.2-3.67-2.41-6.73-3.61-10.4-1.81-6.13-4.22-12.86-6.63-19a222.07,222.07,0,0,0-27.73-49.59,206.61,206.61,0,0,0-18.69-21.42l-10.85-9.18-3-1.84-1.2-1.23-.6-.61-4.83-4.89-4.22-3.68-4.82,2.45a.59.59,0,0,0-.6.61l-.6.62-.61.61c-.6.61-1.2.61-1.2,1.22-.6.61-1.81,1.23-2.41,2.45-1.21,1.22-2.42,3.06-3.62,4.29-.6.61-1.21,1.22-1.21,1.83l-1.2,1.84c-1.21,1.22-2.41,3.06-3.62,4.28a58.62,58.62,0,0,0-6,10.41c-1.81,3.67-2.41,7.35-3.61,11-.61,3.67-1.81,7.35-1.81,11l-.6,4.9-.61,2.44-.6,2.45a105.61,105.61,0,0,1-5.43,18.37l-7.23,18.36c-2.41,6.12-5.42,11.63-8.44,17.75-1.81,3.07-3,5.51-4.82,8.57-.6,1.23-1.81,2.45-2.41,4.29a18.24,18.24,0,0,0-2.41,4.9c-1.81,3.67-3,6.73-4.83,9.79-1.2,3.06-2.41,6.12-4.22,9.8-4.82,12.85-9,25.71-12.66,39.17-1.8,6.74-3.61,13.47-4.82,20.21s-2.41,13.46-3.62,20.2c-.6,6.73-1.8,12.85-3,19.59s-3,12.85-4.22,19c-1.81,6.12-3.62,12.86-6,18.37a37.38,37.38,0,0,1-4.22,8.57c0,.61-.6.61-.6,1.22-36.17-48.36-74.15-34.89-74.15-34.89v.61c-13.26-6.12-23.51-5.51-23.51-5.51-3.61-3.06-32.55-24.48-68.72-14.69-23.51,6.12-42.8,23.87-53,46.52,0-.61-.6-1.22-.6-1.83-2.41-6.12-4.22-12.25-6-18.37s-3-12.85-4.22-19c-1.2-6.74-2.41-12.86-3-19.59-1.21-6.74-1.81-13.47-3.62-20.2-1.2-6.74-3-13.47-4.82-20.21-3.62-13.46-7.84-26.32-12.66-39.17-1.21-3.06-2.41-6.13-4.22-9.8-1.21-3.06-3-6.12-4.82-9.79a18.24,18.24,0,0,1-2.41-4.9c-.61-1.22-1.81-2.45-2.41-4.29-1.81-3.06-3-5.5-4.83-8.57a159.47,159.47,0,0,1-8.44-17.75c-2.41-6.12-5.42-12.24-7.23-18.36a106.48,106.48,0,0,1-5.43-18.37l-.6-2.45-.6-2.44-.6-4.9q-.91-5.51-1.81-11c-1.21-3.67-1.81-7.35-3.62-11a93.89,93.89,0,0,0-6-10.41,26.06,26.06,0,0,0-3.62-4.28l-1.2-1.84c-.6-.61-1.21-1.22-1.21-1.83-1.2-1.23-2.41-3.07-3.61-4.29l-2.41-2.45-1.21-1.22-.6-.61-.61-.62-.6-.61-4.82-2.45-4.22,3.68-4.82,4.89-.61.61-1.2,1.23-3,1.84-10.85,9.18c-6.63,6.73-13.26,13.47-18.68,21.42a221.29,221.29,0,0,0-27.73,49.59,172.79,172.79,0,0,0-6.64,19c-1.2,3.67-2.41,6.73-3.61,10.4a231.33,231.33,0,0,0-7.24,27.55,219.75,219.75,0,0,0-3.61,28.77c0,4.9-.61,9.8-.61,14.69v7.35l.61,7.34v3.68l.6,3.67.6,6.73V1306l.6,3.67.61,3.67.6,3.68a2.26,2.26,0,0,0,.6,1.83q.91,8.27,1.81,16.53v4.9l.6,6.73c0,2.45.61,4.29.61,6.74q.9,6.42,1.81,12.85l1.2,6.12,1.21,6.12q1.8,6.44,3.61,12.86a25.8,25.8,0,0,0,2.42,6.12,25.34,25.34,0,0,0,2.41,6.12l2.41,6.12a57.23,57.23,0,0,0,3,6.13c1.81,3.67,4.22,8,6,11.63l7.23,11c2.42,3.67,5.43,6.73,7.84,10.4l4.22,4.9c1.21,1.84,3,3.06,4.22,4.9l4.82,4.89c1.81,1.23,3,3.07,4.83,4.29,3,3.06,6.63,5.51,9.64,8.57a72.22,72.22,0,0,0,8.44,6.12c.6,1.84.6,3.67,1.21,6.12,0,1.23.6,3.06.6,4.29l.6,4.28c1.21,5.51,2.41,11.63,3.62,17.14l1.81,8.57c.6,1.84.6,3.06,1.2,4.9,0,0-4.22,41-3.61,56.93,0,7.35,3.61-1.83,6.63-14.69,0-.61,0-.61.6-1.22,1.21-3.06,1.81-7.35,3.62-12.25,1.2-3.67,1.81-8,3-12.24l1.21-4.29v-1.22c.6-2.45,1.2-4.29,1.8-6.73l.61-1.84h0v-.61c.6-3.06,1.81-6.12,2.41-9.8a35.91,35.91,0,0,1,3-8.57c0-.61.61-1.22.61-1.83s.6-1.23.6-1.84l1.2-1.22,1.81-1.84a62.49,62.49,0,0,0,5.43-8c1.81-2.45,3-4.9,4.82-7.34,2.41-4.9,4.82-8.58,6-11.64a8.76,8.76,0,0,0,1.2-3.67,2.13,2.13,0,0,1,.61-1.22,1.86,1.86,0,0,0-1.21.61c-.6.61-1.81,1.22-3,2.45-2.41,1.83-6,4.89-9.65,8-1.81,1.83-4.22,3.67-6,5.5-2.41,1.84-4.22,4.29-6.63,6.13l-1.81,1.83-2.41,2.45a25,25,0,0,0-3,5.51c0,.61,0,.61-.6,1.23q-.91-9.19-1.81-18.37v-1.84c0-1.83-.6-3.67-.6-5.51h0v-4.89h0l-.61-4.29-1.81-.61a24.61,24.61,0,0,1-6-2.45h0c-1.21-1.22-2.42-1.83-3-3.06-3-3.06-6-5.51-8.44-8.57l-4.22-4.28-4.22-4.29a33.52,33.52,0,0,1-3.61-4.9l-3.62-4.89c-2.41-3.07-4.82-6.13-7.24-9.8-1.2-1.84-2.41-3.06-3.61-4.9l-3-4.89c-1.2-1.84-1.8-3.68-3-5.51s-1.81-3.68-3-5.51-1.81-3.67-3-5.51l-2.41-5.51a86.37,86.37,0,0,1-4.82-11c-1.21-2.45-1.81-5.51-3-8h0a157,157,0,0,0,9.65,17.14,199.75,199.75,0,0,0,16.28,23.26c6,7.35,12.05,14.08,18.68,20.82a198.65,198.65,0,0,0,21.1,18.36c7.24,5.51,15.07,11,22.91,15.92h.6l.6-1.23a191.89,191.89,0,0,1-20.49-18.36,199.15,199.15,0,0,1-18.69-20.2,182.51,182.51,0,0,1-16.28-21.43c-5.42-7.34-9.64-15.3-13.86-23.26s-8.44-15.91-11.45-24.49a200.08,200.08,0,0,1-14.47-52l-.6-3.06-.61-3.06-.6-6.73-.6-6.74v-25.71c0-3.67.6-7.34.6-11l.6-6.73.61-6.74a126.34,126.34,0,0,1,2.41-13.46c.6-4.29,1.81-8.57,2.41-12.86,1.2-4.28,1.81-8.57,3.62-12.85.6-1.84,1.2-3.06,1.2-4.9,1.81-6.12,4.22-11.63,6.63-17.75a285.85,285.85,0,0,1,24.72-46.53c.6-.61,1.2-1.22,1.2-1.83,5.43-6.74,10.85-13.47,17.49-19.59,3-3.06,6.63-5.51,9.64-8.57l2.41-1.84,1.21-1.22,1.2-1.23,1.21,1.23,1.81,1.83,1.81,1.84c1.2,1.22,1.8,2.45,3,3.67,3.62,4.29,5.42,9.8,7.23,15.31q.92,4.59,1.81,9.18l.6,4.9.61,2.44.6,3.06a160.48,160.48,0,0,0,6,20.21,176.39,176.39,0,0,0,7.84,19c3,6.12,6,12.25,9.64,18.37l5.43,9.18a18.59,18.59,0,0,0,3,4.29c.6,1.22,1.81,3.06,2.41,4.28,1.21,2.45,3,5.51,4.22,8.57l3.62,9.18,7.23,18.37c1.81,6.12,4.22,12.24,6,19,1.81,6.13,3.62,12.86,4.82,19a111.57,111.57,0,0,1,3.62,19.59c.6,2.45,1.21,5.51,1.81,8a93,93,0,0,1,1.2,12.85c.61,6.74,1.81,13.47,3,20.21,1.81,6.73,4.22,13.46,7.83,19a41.85,41.85,0,0,0,6.64,8c0,.61.6.61.6,1.23h0a52,52,0,0,0-2.41,10.4s-15.68,16.53-20.5,47.14c-5.42,30.61-63.9,76.52-63.9,76.52s23.51,7.34,47.62-11.63c0,0-23.51,35.5-41,45.3a185.16,185.16,0,0,0,89.82-2.45c10.85,30,29.54,97.33-6.63,142,0,0,54.86-19,98.26-75.3,40.39-15.3,73.55-47.74,89.82-91.82,13.87,45.3,3.62,94.27,3.62,94.27,58.47-41,86.2-124.27,46.42-208.13a249.63,249.63,0,0,0-12.66-22.65.59.59,0,0,0,.6-.61c.6-.62,1.21-1.84,1.81-2.45,0-.61.6-.61.6-1.23a42.11,42.11,0,0,0,6.63-8c3.62-5.51,6-12.25,7.84-19s2.41-13.47,3-20.2a91.69,91.69,0,0,0,1.21-12.86c.6-2.45,1.2-5.51,1.81-8,1.2-6.73,2.41-12.85,3.61-19.59,1.21-6.12,3-12.85,4.83-19s4.22-12.86,6-19c2.42-6.12,4.22-12.24,7.24-18.36q1.8-4.61,3.62-9.19c1.2-3.06,3-6.12,4.22-8.57.6-1.22,1.8-3.06,2.41-4.28,1.2-1.23,1.8-3.06,3-4.29l5.43-9.18c3.61-6.12,6.63-12.24,9.64-18.36s5.43-12.86,7.84-19a198.52,198.52,0,0,0,6-20.2l.6-3.06.6-2.45.6-4.9q.91-4.59,1.81-9.18c1.81-6.12,3.62-11,7.24-15.31a16.16,16.16,0,0,1,3-3.67l1.81-1.84,1.81-1.83c0-.61.6-.61,1.2-1.23l1.21,1.23,1.2,1.22,2.42,1.84a65.06,65.06,0,0,1,9.64,8.57c6,6.12,12.06,12.24,17.48,19.59,2.41,3.67,4.83,6.73,7.24,10.41v.61c.6.61,1.2,1.83,1.8,2.45a328.13,328.13,0,0,1,16.88,32.44c3,8,6,16.53,8.44,24.49q1.82,6.42,3.62,12.85c.6,4.29,1.81,8.57,2.41,12.86s1.81,8.57,2.41,13.47l.61,6.73.6,6.73c.6,4.29.6,9.19,1.2,13.47,0,3.67.61,7.35.61,11v12.24l-.61,6.74-.6,6.73-.6,3.06-.6,3.06c-1.21,8.57-3.62,17.75-5.43,26.32a217.85,217.85,0,0,1-9,25.72c-3.62,8.57-7.24,16.52-11.46,24.48s-9,15.92-13.86,23.26c-5.43,7.35-10.85,14.7-16.28,21.43-6,6.73-12,13.47-18.68,20.2a193.18,193.18,0,0,1-20.5,18.37l.6,1.22c7.84-4.9,15.68-9.8,22.91-15.92,7.23-5.51,14.47-12.24,21.1-18.36,6.63-6.74,12.66-13.47,18.69-20.81a201.85,201.85,0,0,0,16.27-23.27,157,157,0,0,0,9.65-17.14q-.91,2.76-1.81,5.51c0,.61-.6,1.23-.6,2.45a87.9,87.9,0,0,1-4.83,11l-2.41,5.51a25,25,0,0,1-3,5.51c-1.21,1.83-1.81,3.67-3,5.51s-1.8,3.67-3,5.51l-3,4.89c-1.21,1.84-2.42,3.07-3.62,4.9-2.41,3.67-4.82,6.74-7.23,9.8l-3.62,4.89c-1.21,1.84-2.41,3.06-3.62,4.9l-4.22,4.29-4.22,4.28c-3,3.06-6,5.51-8.44,8.57a8.23,8.23,0,0,1-2.41,1.84c-.6,0-1.2.61-1.81.61a25.08,25.08,0,0,1-6,2.45l-1.8.61v1.84c-.61,11-1.81,22-3,32.44h0a25,25,0,0,0-3-5.51c-.61-.61-1.81-1.83-2.41-2.45l-1.81-1.83a67.89,67.89,0,0,1-6.63-6.12,56,56,0,0,1-6-5.51,78.23,78.23,0,0,0-9.65-8c-1.2-1.23-2.41-1.84-3-2.45a1.86,1.86,0,0,0-1.21-.61,1.89,1.89,0,0,0,.61,1.22c.6.61.6,1.84,1.2,3.67a74.38,74.38,0,0,0,6,11.64,51.87,51.87,0,0,0,4.82,7.34,90,90,0,0,1,5.43,8l1.81,1.84,1.2,1.22c0,.61.61,1.22.61,1.84a2.26,2.26,0,0,1,.6,1.83,30.8,30.8,0,0,1,2.41,8c.6,4.29,8.44,46.53,3,60-4.82,12.25,8.44,11.63,10.85-6.73v-.61a21.93,21.93,0,0,0,.61-3.68q.9-4.59,1.81-12.85a93.73,93.73,0,0,0,0-18.37,69.47,69.47,0,0,0-1.21-10.4v-.62c0-1.22.6-3.06.6-4.28l1.81-8.57c1.21-5.51,2.41-11.63,3.62-17.14l.6-4.29c0-1.22.6-3.06.6-4.28.61-1.84.61-3.67,1.21-6.12,3-1.84,6-4.29,8.44-6.12a64.56,64.56,0,0,0,9.64-8.58c1.81-1.22,3-3.06,4.83-4.28l4.82-4.9a30.64,30.64,0,0,0,4.22-4.89l4.22-4.9c2.41-3.67,5.42-6.74,7.83-10.41s4.83-7.34,7.24-11a70.07,70.07,0,0,0,6-11.63,58.41,58.41,0,0,0,3-6.12l2.41-6.12c.6-1.84,1.81-4.29,2.41-6.12a26.18,26.18,0,0,1,2.41-6.12q1.82-6.43,3.62-12.86l1.21-6.12,1.2-6.12q.92-6.44,1.81-12.86c0-2.45.6-4.28.6-6.73l.61-6.74v-4.89q.9-8.27,1.81-16.53c0-.61.6-1.23.6-1.84l.6-3.67.6-3.67.61-3.68v-3.67l.6-6.73.6-3.68V1287l.6-7.35v-7.34C1713.3,1268.68,1712.69,1263.78,1712.69,1258.88Zm-344.81,203.24a130.31,130.31,0,0,1-7.84,12.24q-5.41,7.35-12.65,16.53c-2.42,3.06-5.43,5.51-7.84,8.57s-6,5.51-9,8.57c-6,5.51-12.66,9.79-19.29,14.08a174.84,174.84,0,0,1-18.69,9.18c-11.46,4.29-19.29,4.9-19.29,4.9v-.61a48.39,48.39,0,0,0,5.42-2.45,86.8,86.8,0,0,0,12.66-6.74,190.64,190.64,0,0,0,16.28-11,197.74,197.74,0,0,0,17.48-14.08,52.61,52.61,0,0,0,8.44-8c2.41-3.06,5.43-4.9,7.84-8,2.41-2.45,5.42-4.9,7.23-7.35l6.63-6.73,10.25-10.41a30.86,30.86,0,0,1,4.22-3.67l.6.61C1370.9,1457.22,1369.69,1459.06,1367.88,1462.12Zm5.43-123.66h-7.24a21.59,21.59,0,0,0-8.44,1.23,50,50,0,0,0-9,2.44c-3,1.23-6,1.84-9,3.68a25.09,25.09,0,0,0-8.44,5.51c-3,1.83-5.43,4.28-7.84,6.12a74.37,74.37,0,0,0-6.63,7.34c-4.22,4.9-7.23,9.8-10.25,14.08a76.45,76.45,0,0,0-7.23,15.31h-.6v-1.84a6.79,6.79,0,0,1,.6-3.06c.6-3.06,1.21-8,3.62-12.85a64.69,64.69,0,0,1,9-16.53c1.81-3.06,4.22-5.51,6.63-8.57,3-2.45,5.43-5.51,8.44-7.35,6-4.28,13.26-8,19.89-9.18,3.62-1.23,6.63-1.23,10.25-1.84,3-.61,6,0,9,0,5.43,0,9.65,1.84,12.66,3.06s4.82,1.84,4.82,1.84v.61a27,27,0,0,1-4.82-.61A16.47,16.47,0,0,1,1373.31,1338.46Zm54.85,135.9c-.6,5.51-1.2,11-1.81,17.14-1.2,5.51-1.8,11.63-3,17.14a175.46,175.46,0,0,1-4.22,17.14c-1.81,5.51-3.62,11-5.42,15.92a193.14,193.14,0,0,1-13.27,27.55c-9,15.3-16.88,23.87-16.88,23.87l-.6-.61s1.21-2.45,4.22-7.35c2.41-4.28,5.43-11,9-19a201.51,201.51,0,0,0,10.25-27.54,121.36,121.36,0,0,0,4.82-15.92c1.81-5.51,2.42-11,3.62-16.53s2.41-11,3.62-16.53q.9-8.25,1.81-16.52a121.75,121.75,0,0,1,1.2-15.31,113.54,113.54,0,0,0,.61-14.08c0-4.28.6-8.57.6-12.24v-17.14h.6s.6,3.06,1.21,8c.6,2.45.6,5.51,1.2,9.18s.61,7.35,1.21,12.24c0,4.29.6,9.18.6,14.08A152.21,152.21,0,0,1,1428.16,1474.36Zm89.82-42.24a48.06,48.06,0,0,1,1.21,8.57,111.6,111.6,0,0,1,.6,12.86,17.18,17.18,0,0,1-.6,4.89h-.6a43.56,43.56,0,0,1-1.21-4.89c-.6-3.06-1.81-7.35-3-12.25a166,166,0,0,0-15.07-34.89,197,197,0,0,0-21.1-31.22,122.82,122.82,0,0,0-11.46-12.24l.61-.61a16.6,16.6,0,0,1,4.22,2.44c2.41,1.84,6.63,4.29,10.85,7.35a125.79,125.79,0,0,1,12.66,12.86c.6.61.6,1.22,1.2,1.83h0a27,27,0,0,1,4.82,6.74h0l5.43,9.18c1.81,3.06,3,6.73,4.82,9.79s2.41,6.74,3.62,9.8C1516.78,1426,1516.78,1429.06,1518,1432.12Z"/></svg>