<svg xmlns="http://www.w3.org/2000/svg" viewBox="0 0 2800 2800"><title>splashscreen</title><rect x="-48" y="-44" width="2900" height="2900" style="fill:#5bc0eb"/><path d="M1540.79,1421.81a24.57,24.57,0,0,0,5.28-4.87,70.81,70.81,0,0,0,11.52-15.12,96.07,96.07,0,0,0,5.76-12.19,69,69,0,0,0,3.37-15.11,84.68,84.68,0,0,0,0-15.6c-.48-5.36-1-10.24-1-14.62v-5.37h0v-7.31a109.33,109.33,0,0,1,2.4-12.19,110.91,110.91,0,0,1,3.84-11.7,26.31,26.31,0,0,1,2.4-5.36,46.41,46.41,0,0,1,2.4-4.88c1-1.46,1.44-3.41,2.4-4.87a17.47,17.47,0,0,0,1.92-4.39c1.44-2.92,2.4-4.87,3.36-7.31,1.92-3.9,3.36-6.34,3.36-6.34a44.77,44.77,0,0,0-6.24,3.41,38.89,38.89,0,0,0-6.72,4.39c-1.44,1-2.4,1.95-3.84,2.93a30.44,30.44,0,0,0-4.32,3.9l-4.33,4.38a52.59,52.59,0,0,0-4.32,5.37,68.27,68.27,0,0,0-7.68,12.67,57.5,57.5,0,0,0-5.28,16.09,13.68,13.68,0,0,0-.48,4.39l-.48,2.43v10.73c.48,5.85,1,10.73,1.44,15.6.48,4.39,1.44,9.26,1.44,13.16a47.71,47.71,0,0,1,0,11.7c0,3.9-1,7.8-1.44,11.22a58.45,58.45,0,0,1-1.92,9.75c-.48,2.92-1,5.85-1.44,7.8Z"/><path d="M1275.79,1417.42a85.55,85.55,0,0,0-3.36-10.24l-.48-1.46a1.68,1.68,0,0,0-.48-1v-1h0v-1c0-1-.48-2-.48-2.93a6.25,6.25,0,0,0-.48-2.92,51.73,51.73,0,0,1,0-12.19,130.74,130.74,0,0,1,1-13.16c1-8.78,2.4-18.53,2.4-29.26,0-5.36,0-10.23-.48-16.08-.48-5.37-1.44-10.73-2.4-16.09l-4.32-16.09a141.34,141.34,0,0,0-6.24-15.11l-7.21-14.63c-1.44-2.43-2.4-4.87-3.84-7.31s-2.88-4.88-4.32-6.83c-2.88-4.38-5.28-8.77-7.68-13.16s-4.8-8.77-6.72-13.16-3.36-8.78-4.8-13.16-2.4-8.78-4.32-14.14a13.61,13.61,0,0,0-2.4-4.39.47.47,0,0,0-.48-.49l-1-1c-.48,0-.48-.49-1-.49h-.48s-1-.49-.48,0h-1a9.18,9.18,0,0,0-3.84.49c-1.92,1-2.88,2-3.84,2.44a12.87,12.87,0,0,0-2.4,2.92,40.72,40.72,0,0,0-3.84,5.85,49.56,49.56,0,0,1-3.37,5.36,118.54,118.54,0,0,0-8.64,20.48c-1.92,6.34-3.36,11.7-4.8,16.57-1,4.39-1.92,8.29-2.4,10.73a22.44,22.44,0,0,0-.48,3.9h.48a29.33,29.33,0,0,1,1.44-3.41c1-2.44,2.4-5.85,3.84-10.24,1.92-4.39,3.84-9.75,6.72-15.11a150.44,150.44,0,0,1,10.57-18.53,43.51,43.51,0,0,1,7.2-9.26,6.47,6.47,0,0,1,1.92-1.46c1,3.9,1.92,8.77,2.88,13.16a84.3,84.3,0,0,0,4.32,14.62c3.84,9.75,9.12,19,14.4,28.28a125.2,125.2,0,0,1,7.68,13.65,127,127,0,0,1,6.72,14.14,158,158,0,0,1,10.09,28.76c1.44,4.88,1.92,9.75,2.88,14.63.48,4.87,1,9.75,1,14.62,0,9.75-.48,19.5-1,28.77a122.32,122.32,0,0,0,1.44,26.81c0,1,.48,1.95.48,2.92.48,1,.48,2,1,2.93v1h0v.49l.48,1c0,.48.48,1,.48,1.46l.48,1.46a52.43,52.43,0,0,1,4.32,9.26c1.92,5.86,1.92,11.22.48,15.61a31.87,31.87,0,0,1-4.8,9.26,29.18,29.18,0,0,1-2.4,2.92,1.49,1.49,0,0,0,1-.48l.48-.49-1,1a1.49,1.49,0,0,0,1-.48c.48-.49,1.44-1,1.92-2a36.35,36.35,0,0,0,6.72-8.78c.48-1,1-2.44,1.44-3.41.48-1.46.48-2.93,1-4.39C1276.75,1423.76,1276.75,1420.84,1275.79,1417.42Z"/><path d="M1259.47,1427.66a46.54,46.54,0,0,1-5.77-4.39A75.13,75.13,0,0,1,1235,1397a46.39,46.39,0,0,1-4.32-15.12c-1-5.36-1-10.23-1.44-15.6v-20h0v-4.39c0-1-.48-1.95-.48-2.93-.48-3.9-1.92-7.8-2.88-11.7a78.27,78.27,0,0,0-4.8-11.21,26.31,26.31,0,0,1-2.4-5.36,23.18,23.18,0,0,1-2.4-4.88,5204.65,5204.65,0,0,0-4.8-8.77c-1.44-2.44-2.88-4.88-3.84-6.83a45.09,45.09,0,0,1-3.36-6.34s2.4,1,6.72,2.93c1.92,1,4.32,2.44,7.2,3.9l4.32,2.92c1.44,1,2.88,2.44,4.32,3.42a43.49,43.49,0,0,0,4.8,4.38,46.4,46.4,0,0,1,4.8,4.88,77.78,77.78,0,0,1,8.64,12.19c2.88,4.38,4.8,9.75,6.24,15.6.48,1.46.48,2.92,1,4.39l.48,2.43.48,1.95v8.78c0,5.85-.48,10.72-.48,15.6-.48,4.87-.48,9.26-1,13.65a48.19,48.19,0,0,0,1,11.7c.48,3.9,1.44,7.8,1.92,11.21,1,3.41,1.44,6.83,2.4,9.75a61.93,61.93,0,0,1,1.92,7.8A15.68,15.68,0,0,0,1259.47,1427.66Z"/><path d="M1530.71,1313.58a157.2,157.2,0,0,1,10.08-28.76c1.92-4.88,4.32-9.26,6.72-14.14,2.4-4.39,4.8-8.77,7.68-13.65a195.16,195.16,0,0,0,14.41-28.28,84.3,84.3,0,0,0,4.32-14.62c1-4.88,1.92-9.75,2.88-13.16v-.49h0c.48.49,1.44,1,1.92,2,2.4,2.92,4.8,6.34,7.2,9.26a150.3,150.3,0,0,1,10.56,18.53c2.88,5.85,4.8,11.21,6.72,15.11,1.92,4.39,2.88,7.8,3.84,10.24s1.44,3.41,1.44,3.41a22.44,22.44,0,0,0-.48-3.9,77.29,77.29,0,0,0-2.4-10.73,168.44,168.44,0,0,0-13.44-37,20.12,20.12,0,0,0-3.36-5.36,40.72,40.72,0,0,0-3.84-5.85c-1-1-1.44-1.95-2.4-2.92a7.55,7.55,0,0,0-3.84-2.44,9.18,9.18,0,0,0-3.84-.49h-1.44c-.48,0-.48.49-1,.49-.48.49-1,.49-1,1l-.48.49a13.61,13.61,0,0,0-2.4,4.39c-1.92,4.87-2.88,9.26-4.32,14.14-1.44,4.38-2.88,8.77-4.81,13.16a85.24,85.24,0,0,1-6.72,13.16c-2.4,4.39-5.28,8.78-7.68,13.16-1.44,2.44-2.88,4.39-4.32,6.83a54.13,54.13,0,0,0-3.84,7.31l-7.2,14.63c-2.4,4.87-4.32,10.24-6.24,15.11a100,100,0,0,0-4.32,16.09,92.94,92.94,0,0,0-2.4,16.09c-.48,5.36-.48,10.72-.48,16.09.48,10.23,1.44,20,2.4,29.25a121.13,121.13,0,0,1,1,13.16V1397a6.25,6.25,0,0,1-.48,2.92c0,1-.48,2-.48,2.93v1h0v1c0,.49,0,.49-.48,1l-.48,1.47a84.82,84.82,0,0,0-3.36,10.23,22.69,22.69,0,0,0-.48,9.75,14.37,14.37,0,0,0,1,4.39c.48,1,1,2.44,1.44,3.41a22.66,22.66,0,0,0,6.72,8.78l1.92,2a1.47,1.47,0,0,0,1,.49,30.31,30.31,0,0,1-2.4-2.93,31.73,31.73,0,0,1-4.8-9.26c-1.44-4.39-1.44-9.75.48-15.6a52.1,52.1,0,0,1,4.32-9.26l.48-1.47c0-.48.48-1,.48-1.46l.48-1v-.49h0v-1c.48-1,.48-2,1-2.92,0-1,.48-1.95.48-2.93a122.32,122.32,0,0,0,1.44-26.81c-.48-9.26-1-19-1-28.76,0-4.88.48-9.75,1-14.63C1528.79,1323.33,1529.75,1318.46,1530.71,1313.58Z"/><path d="M1126.47,1828.39v5.84h-52.38v-90.94h50.84v5.84h-45v45.79h34.49v6H1080v27.5Z"/><path d="M1213.46,1828.27l12.65,16.73h-7.41l-10.35-13.62a44.54,44.54,0,0,1-18.26,4.8h-1.66a43.09,43.09,0,0,1-30.15-13.88,49,49,0,0,1,0-66.81,43.63,43.63,0,0,1,30.15-13.88h1.66a44.13,44.13,0,0,1,30.15,13.88,49.34,49.34,0,0,1,0,66.81A49.74,49.74,0,0,1,1213.46,1828.27Zm14.06-39.31c0-22.57-17.12-41-38.33-41.39C1168,1748,1151,1766.39,1151,1789s17,40.86,38.19,41.38C1210.4,1829.82,1227.52,1811.4,1227.52,1789Z"/><path d="M1289.73,1835.27c-16,0-28.87-13.23-28.87-29.45v-62.4h5.75v62.4a23.13,23.13,0,1,0,46.24,0v-62.4h5.75v62.4C1318.6,1822,1305.7,1835.27,1289.73,1835.27Z"/><path d="M1398.57,1828.39v5.84H1346.2v-90.94H1397v5.84h-45v45.79h34.49v6h-34.49v27.5Z"/><path d="M1466.41,1828.14l-.77.77a26.63,26.63,0,0,1-17.12,6.49h-.64a27.36,27.36,0,0,1-17.62-6.23,23.17,23.17,0,0,1-7.92-14.27l5.74-.91a17,17,0,0,0,6,10.64c7.92,6.62,20.31,6.49,28-.39a21.14,21.14,0,0,0,6.26-16.21,18.29,18.29,0,0,0-7.53-14.27c-4.86-3.63-9.58-4.67-14.18-5.84-5.5-1.3-11.24-2.59-16.35-7.91-4.86-5.06-7.54-11.16-7.29-17.26a21.4,21.4,0,0,1,6.9-14.66,25.71,25.71,0,0,1,17.63-6.48,26.13,26.13,0,0,1,17.63,6.61,22.29,22.29,0,0,1,6.39,9.86l-5.88.91a16.2,16.2,0,0,0-4.34-6.36c-7.54-6.74-19.67-6.87-27.21-.39a15.25,15.25,0,0,0-5.24,10.77c-.26,4.41,1.79,8.82,5.62,12.85s8.3,5.05,13.41,6.35,10.61,2.47,16.36,6.88a25,25,0,0,1,10,18.55A27.23,27.23,0,0,1,1466.41,1828.14Z"/><path d="M1552.26,1748.87h-25.55v85.36H1521v-85.36h-25.55V1743h56.85Z"/><path d="M1628.39,1828.39v5.84H1576v-90.94h50.84v5.84h-45v45.79h34.49v6h-34.49v27.5Z"/><path d="M1692,1835.66h-1.66a43.11,43.11,0,0,1-30.15-13.88,49,49,0,0,1,0-66.81,43.11,43.11,0,0,1,30.15-13.88H1692a43.56,43.56,0,0,1,30.15,13.88,49.34,49.34,0,0,1,0,66.81A43.56,43.56,0,0,1,1692,1835.66Zm-.89-88.73c-21.21.51-38.2,18.94-38.2,41.38s17,41,38.2,41.51c21.21-.52,38.32-18.94,38.32-41.51S1712.33,1747.44,1691.12,1746.93Z"/><path d="M1394.37,956.23c-187.23,0-339.9,155-339.9,345.16s152.19,345.16,339.42,345.16h339.89V1301.39C1734.26,1110.78,1581.6,956.23,1394.37,956.23Zm-291.89,345.16c0-163.31,131.06-296.41,291.89-296.41s291.4,132.61,291.88,295.44c-3.36,54.6-15.36,99-32.16,135.53-30.73,60.45-80.65,109.2-142.1,136.5a331.88,331.88,0,0,1-107.54,24.87c-3.36,0-6.72.48-10.08.48C1233.54,1597.8,1102.48,1464.71,1102.48,1301.39Z"/><path d="M1644,1288.23a186.76,186.76,0,0,0-2.88-22.91,184.37,184.37,0,0,0-5.76-21.94c-1-2.93-1.92-5.36-2.88-8.29-1.44-4.87-3.36-10.24-5.28-15.11a176.82,176.82,0,0,0-22.09-39.49,163.56,163.56,0,0,0-14.88-17.06l-8.64-7.32-2.4-1.46-1-1-.48-.49-3.84-3.9-3.36-2.93-3.84,2a.48.48,0,0,0-.48.49l-.48.49-.48.49c-.48.48-1,.48-1,1-.48.49-1.44,1-1.92,2-1,1-1.92,2.44-2.88,3.41-.48.49-1,1-1,1.47l-1,1.46c-1,1-1.92,2.44-2.88,3.41a46.4,46.4,0,0,0-4.8,8.29c-1.44,2.92-1.92,5.85-2.88,8.77-.48,2.93-1.44,5.86-1.44,8.78l-.48,3.9-.48,2-.48,1.95a84.4,84.4,0,0,1-4.32,14.63l-5.76,14.62c-1.92,4.88-4.32,9.26-6.72,14.14-1.44,2.44-2.4,4.39-3.84,6.82a21.28,21.28,0,0,0-1.92,3.42,14.54,14.54,0,0,0-1.92,3.9c-1.44,2.92-2.4,5.36-3.84,7.8-1,2.43-1.92,4.87-3.36,7.8-3.84,10.24-7.2,20.47-10.08,31.2-1.44,5.36-2.88,10.72-3.84,16.09l-2.88,16.08c-.48,5.37-1.45,10.24-2.41,15.61s-2.4,10.23-3.36,15.11a129.71,129.71,0,0,1-4.8,14.62,30,30,0,0,1-3.36,6.83c0,.49-.48.49-.48,1-28.8-38.51-59-27.78-59-27.78v.48c-10.56-4.87-18.72-4.38-18.72-4.38-2.88-2.44-25.92-19.51-54.73-11.71-18.72,4.88-34.08,19-42.25,37.06,0-.49-.48-1-.48-1.47-1.92-4.87-3.36-9.75-4.8-14.62s-2.4-10.24-3.36-15.11c-1-5.37-1.92-10.24-2.4-15.61-1-5.36-1.44-10.72-2.88-16.08-1-5.37-2.4-10.73-3.84-16.09-2.88-10.73-6.24-21-10.08-31.2-1-2.44-1.92-4.88-3.36-7.8-1-2.44-2.4-4.88-3.84-7.8a14.84,14.84,0,0,1-1.92-3.9,21.28,21.28,0,0,1-1.92-3.42c-1.44-2.43-2.4-4.38-3.84-6.82a127,127,0,0,1-6.72-14.14c-1.92-4.87-4.32-9.75-5.76-14.62a84.45,84.45,0,0,1-4.33-14.63l-.48-1.95-.48-2-.48-3.9-1.44-8.77c-1-2.93-1.44-5.86-2.88-8.78a73.69,73.69,0,0,0-4.8-8.29,21,21,0,0,0-2.88-3.41l-1-1.46c-.48-.49-1-1-1-1.47-1-1-1.92-2.43-2.88-3.41l-1.92-2-1-1-.48-.49-.48-.49-.48-.49-3.84-2-3.36,2.93-3.84,3.9-.48.49-1,1-2.4,1.46-8.64,7.32c-5.28,5.36-10.56,10.72-14.89,17.06a176.39,176.39,0,0,0-22.08,39.49,139,139,0,0,0-5.28,15.11c-1,2.93-1.92,5.36-2.88,8.29a184.88,184.88,0,0,0-5.76,21.94,175.5,175.5,0,0,0-2.88,22.91c0,3.9-.48,7.8-.48,11.7v5.85l.48,5.85v2.93l.48,2.92.48,5.36v2.93l.48,2.93.48,2.92.48,2.93a1.81,1.81,0,0,0,.48,1.46l1.44,13.16v3.9l.48,5.36c0,2,.48,3.42.48,5.37l1.44,10.23,1,4.88,1,4.87,2.88,10.24a7491.35,7491.35,0,0,0,3.84,9.75l1.92,4.88a45.59,45.59,0,0,0,2.4,4.87c1.44,2.93,3.36,6.34,4.8,9.27l5.76,8.77c1.92,2.93,4.32,5.36,6.24,8.29l3.36,3.9c1,1.46,2.41,2.44,3.37,3.9l3.84,3.9c1.44,1,2.4,2.44,3.84,3.41,2.4,2.44,5.28,4.39,7.68,6.83a57.9,57.9,0,0,0,6.72,4.87c.48,1.46.48,2.93,1,4.88,0,1,.48,2.43.48,3.41l.48,3.41c1,4.39,1.92,9.27,2.88,13.65l1.44,6.83c.48,1.46.48,2.44,1,3.9,0,0-3.36,32.66-2.88,45.34,0,5.85,2.88-1.47,5.28-11.7,0-.49,0-.49.48-1,1-2.44,1.44-5.85,2.88-9.75,1-2.92,1.44-6.34,2.4-9.75l1-3.41v-1c.48-2,1-3.41,1.44-5.36l.48-1.46h0v-.49c.48-2.44,1.44-4.87,1.92-7.8a28.63,28.63,0,0,1,2.4-6.83c0-.48.48-1,.48-1.46s.48-1,.48-1.46l1-1,1.44-1.46a49.5,49.5,0,0,0,4.32-6.34c1.44-1.95,2.4-3.9,3.84-5.85,1.92-3.9,3.85-6.82,4.81-9.26a7,7,0,0,0,1-2.92,1.72,1.72,0,0,1,.48-1,1.47,1.47,0,0,0-1,.49c-.48.49-1.44,1-2.41,2-1.92,1.46-4.8,3.9-7.68,6.34-1.44,1.46-3.36,2.92-4.8,4.38-1.92,1.47-3.36,3.42-5.28,4.88l-1.44,1.46-1.92,2a19.87,19.87,0,0,0-2.4,4.39c0,.49,0,.49-.48,1l-1.44-14.62v-1.46c0-1.47-.48-2.93-.48-4.39h0v-3.9h0l-.48-3.41-1.44-.49a20.19,20.19,0,0,1-4.8-2h0c-1-1-1.92-1.46-2.4-2.44-2.4-2.44-4.8-4.39-6.72-6.82l-3.36-3.42-3.36-3.41a26.87,26.87,0,0,1-2.88-3.9l-2.88-3.9c-1.92-2.44-3.84-4.87-5.76-7.8-1-1.46-1.93-2.44-2.89-3.9l-2.4-3.9c-1-1.46-1.44-2.92-2.4-4.39s-1.44-2.92-2.4-4.38-1.44-2.93-2.4-4.39l-1.92-4.39a69.67,69.67,0,0,1-3.84-8.78c-1-2-1.44-4.38-2.4-6.33h0a125.2,125.2,0,0,0,7.68,13.65,159.47,159.47,0,0,0,13,18.52c4.8,5.85,9.6,11.22,14.88,16.58a157,157,0,0,0,16.8,14.62c5.76,4.39,12,8.78,18.24,12.68h.48l.48-1a152.56,152.56,0,0,1-16.32-14.62,158.52,158.52,0,0,1-14.88-16.09,144.42,144.42,0,0,1-13-17.06c-4.32-5.85-7.69-12.19-11-18.53s-6.72-12.67-9.12-19.5a159.72,159.72,0,0,1-11.52-41.44l-.48-2.43-.48-2.44-.48-5.37-.48-5.36v-20.47c0-2.93.48-5.85.48-8.78l.48-5.36.48-5.36a102,102,0,0,1,1.92-10.73c.48-3.41,1.44-6.82,1.92-10.24,1-3.41,1.44-6.82,2.88-10.24a11.56,11.56,0,0,0,1-3.9c1.44-4.87,3.36-9.26,5.28-14.13a228,228,0,0,1,19.69-37c.48-.49,1-1,1-1.47a140.84,140.84,0,0,1,13.92-15.6c2.4-2.44,5.28-4.39,7.68-6.82l1.92-1.47,1-1,1-1,1,1,1.44,1.46,1.44,1.46c1,1,1.44,2,2.4,2.93,2.88,3.41,4.32,7.8,5.76,12.19l1.44,7.31.48,3.9.48,2,.48,2.44a127.44,127.44,0,0,0,4.8,16.09,140.18,140.18,0,0,0,6.25,15.11c2.4,4.87,4.8,9.75,7.68,14.62l4.32,7.32a15,15,0,0,0,2.4,3.41c.48,1,1.44,2.44,1.92,3.41,1,2,2.4,4.39,3.36,6.83l2.88,7.31,5.76,14.63c1.44,4.87,3.36,9.75,4.8,15.11,1.44,4.87,2.88,10.24,3.84,15.11a89,89,0,0,1,2.88,15.6c.48,1.95,1,4.39,1.44,6.34a73.87,73.87,0,0,1,1,10.24c.48,5.36,1.44,10.72,2.4,16.09a52.67,52.67,0,0,0,6.24,15.11,33.38,33.38,0,0,0,5.28,6.34c0,.48.48.48.48,1h0a41.81,41.81,0,0,0-1.92,8.29s-12.48,13.16-16.32,37.54c-4.32,24.37-50.89,60.94-50.89,60.94s18.73,5.85,37.93-9.26c0,0-18.72,28.27-32.65,36.07a147.49,147.49,0,0,0,71.54-2c8.64,23.89,23.52,77.52-5.29,113.1,0,0,43.69-15.11,78.26-60,32.16-12.19,58.57-38,71.53-73.13,11,36.08,2.88,75.08,2.88,75.08,46.57-32.66,68.65-99,37-165.75a198.17,198.17,0,0,0-10.09-18,.48.48,0,0,0,.48-.49c.48-.49,1-1.46,1.44-2,0-.49.48-.49.48-1a33.68,33.68,0,0,0,5.29-6.33,52.61,52.61,0,0,0,6.24-15.12,93,93,0,0,0,2.4-16.08,74,74,0,0,0,1-10.24c.48-2,1-4.39,1.44-6.34,1-5.36,1.92-10.24,2.88-15.6,1-4.88,2.4-10.24,3.84-15.11s3.36-10.24,4.8-15.12c1.92-4.87,3.36-9.75,5.76-14.62l2.88-7.31c1-2.44,2.4-4.88,3.36-6.83.48-1,1.44-2.44,1.92-3.41,1-1,1.44-2.44,2.4-3.42l4.32-7.31c2.88-4.87,5.28-9.75,7.68-14.62s4.32-10.24,6.24-15.12a159,159,0,0,0,4.81-16.08l.48-2.44.48-2,.48-3.9c.47-2.44,1-4.88,1.44-7.31,1.44-4.88,2.88-8.78,5.76-12.19a12.9,12.9,0,0,1,2.4-2.93l1.44-1.46,1.44-1.46c0-.49.48-.49,1-1l1,1,1,1,1.92,1.47a51.46,51.46,0,0,1,7.68,6.82,145.29,145.29,0,0,1,13.92,15.6c1.92,2.93,3.84,5.36,5.76,8.29v.49c.48.48,1,1.46,1.44,2a262.41,262.41,0,0,1,13.44,25.83c2.41,6.34,4.81,13.17,6.73,19.51l2.88,10.23c.48,3.42,1.44,6.83,1.92,10.24s1.44,6.83,1.92,10.73l.48,5.36.48,5.36c.48,3.41.48,7.31,1,10.73,0,2.92.48,5.85.48,8.77v9.75l-.48,5.37-.48,5.36-.48,2.44-.48,2.43c-1,6.83-2.88,14.14-4.32,21a173.46,173.46,0,0,1-7.2,20.47c-2.88,6.83-5.77,13.16-9.13,19.5s-7.2,12.68-11,18.53c-4.32,5.85-8.64,11.7-13,17.06-4.8,5.36-9.6,10.73-14.88,16.09a151.69,151.69,0,0,1-16.33,14.62l.48,1c6.25-3.9,12.49-7.8,18.25-12.68,5.76-4.38,11.52-9.75,16.8-14.62,5.28-5.36,10.08-10.73,14.88-16.58a161.07,161.07,0,0,0,13-18.52,125.2,125.2,0,0,0,7.68-13.65l-1.44,4.38c0,.49-.48,1-.48,2a69,69,0,0,1-3.84,8.78l-1.92,4.39a20.15,20.15,0,0,1-2.41,4.39c-1,1.46-1.44,2.92-2.4,4.38s-1.44,2.93-2.4,4.39l-2.4,3.9c-1,1.46-1.92,2.44-2.88,3.9-1.92,2.93-3.84,5.36-5.76,7.8l-2.88,3.9c-1,1.46-1.92,2.44-2.88,3.9l-3.36,3.41-3.36,3.42c-2.4,2.43-4.8,4.38-6.72,6.82a6.47,6.47,0,0,1-1.92,1.46c-.48,0-1,.49-1.44.49a19.78,19.78,0,0,1-4.8,2l-1.44.49v1.46c-.48,8.78-1.44,17.55-2.4,25.84h0a19.87,19.87,0,0,0-2.4-4.39l-1.92-2-1.44-1.46A51.72,51.72,0,0,1,1559,1472a42.75,42.75,0,0,1-4.81-4.38,62.37,62.37,0,0,0-7.68-6.34c-1-1-1.92-1.46-2.4-2a1.47,1.47,0,0,0-1-.49,1.53,1.53,0,0,0,.48,1c.48.48.48,1.46,1,2.92a58.72,58.72,0,0,0,4.8,9.26,41.36,41.36,0,0,0,3.84,5.86,74.55,74.55,0,0,1,4.33,6.33l1.44,1.47,1,1c0,.49.48,1,.48,1.46a1.82,1.82,0,0,1,.48,1.47,24.44,24.44,0,0,1,1.92,6.33c.48,3.42,6.72,37,2.4,47.78-3.84,9.75,6.72,9.26,8.64-5.36v-.49a17.47,17.47,0,0,0,.48-2.93c.48-2.43,1-5.85,1.44-10.23a74.32,74.32,0,0,0,0-14.63,55.16,55.16,0,0,0-1-8.29v-.48c0-1,.48-2.44.48-3.42l1.44-6.82c1-4.39,1.92-9.27,2.88-13.65l.48-3.42c0-1,.48-2.43.48-3.41.48-1.46.48-2.92,1-4.87,2.4-1.47,4.8-3.42,6.72-4.88A52,52,0,0,0,1596,1454c1.44-1,2.4-2.44,3.84-3.42l3.84-3.9a23.88,23.88,0,0,0,3.36-3.9l3.36-3.9c1.92-2.92,4.32-5.36,6.24-8.28l5.76-8.78a55,55,0,0,0,4.81-9.26,45.46,45.46,0,0,0,2.4-4.88l1.92-4.87c.48-1.47,1.44-3.42,1.92-4.88a20.53,20.53,0,0,1,1.92-4.87l2.88-10.24,1-4.88,1-4.87,1.44-10.24c0-2,.48-3.41.48-5.36l.48-5.36v-3.9L1644,1335c0-.49.48-1,.48-1.46l.48-2.93.48-2.92.48-2.93v-2.92l.48-5.36.48-2.93v-2.92l.48-5.85V1299C1644.49,1296,1644,1292.13,1644,1288.23ZM1369.4,1450.09a104.5,104.5,0,0,1-6.24,9.75q-4.32,5.85-10.08,13.16c-1.92,2.44-4.32,4.39-6.24,6.82s-4.8,4.39-7.2,6.83a112.36,112.36,0,0,1-15.36,11.21,138.26,138.26,0,0,1-14.89,7.32,62.67,62.67,0,0,1-15.36,3.9v-.49a38,38,0,0,0,4.32-1.95,70.84,70.84,0,0,0,10.08-5.36,154.48,154.48,0,0,0,13-8.78,156.09,156.09,0,0,0,13.92-11.21A41.61,41.61,0,0,0,1342,1475c1.92-2.44,4.32-3.9,6.24-6.34,1.92-1.95,4.32-3.9,5.76-5.85l5.28-5.36,8.16-8.29a24.59,24.59,0,0,1,3.36-2.92l.48.48C1371.8,1446.19,1370.84,1447.65,1369.4,1450.09Zm4.32-98.48H1368a17.33,17.33,0,0,0-6.72,1,40.11,40.11,0,0,0-7.2,2c-2.4,1-4.8,1.47-7.2,2.93a20,20,0,0,0-6.72,4.39,70.68,70.68,0,0,0-6.24,4.87,58.11,58.11,0,0,0-5.28,5.85,131.12,131.12,0,0,0-8.16,11.21,60.57,60.57,0,0,0-5.77,12.19h-.48v-1.46a5.39,5.39,0,0,1,.48-2.44c.48-2.44,1-6.34,2.88-10.24a51.86,51.86,0,0,1,7.21-13.16c1.44-2.44,3.36-4.39,5.28-6.82,2.4-1.95,4.32-4.39,6.72-5.85,4.8-3.42,10.56-6.34,15.84-7.32,2.88-1,5.28-1,8.16-1.46,2.4-.49,4.8,0,7.2,0a25.45,25.45,0,0,1,10.08,2.44c2.41,1,3.85,1.46,3.85,1.46v.49a21.47,21.47,0,0,1-3.85-.49A13,13,0,0,1,1373.72,1351.61Zm43.69,108.23c-.48,4.38-1,8.77-1.44,13.65-1,4.38-1.44,9.26-2.4,13.65s-1.92,9.26-3.36,13.65-2.88,8.77-4.32,12.67a154.5,154.5,0,0,1-10.56,21.94,124.1,124.1,0,0,1-13.44,19l-.48-.48s1-2,3.36-5.85c1.92-3.42,4.32-8.78,7.2-15.12a161.28,161.28,0,0,0,8.16-21.93,97.36,97.36,0,0,0,3.84-12.68c1.44-4.39,1.92-8.78,2.88-13.16l2.88-13.17,1.44-13.16a96.43,96.43,0,0,1,1-12.19,91.49,91.49,0,0,0,.48-11.21c0-3.41.48-6.82.48-9.75v-13.65h.48s.48,2.44,1,6.34c.48,1.95.48,4.38,1,7.31s.48,5.85,1,9.75c0,3.41.48,7.31.48,11.21A120.78,120.78,0,0,1,1417.41,1459.84Zm71.53-33.64a38.78,38.78,0,0,1,1,6.82,88.44,88.44,0,0,1,.48,10.24,13.66,13.66,0,0,1-.48,3.9h-.48a36.07,36.07,0,0,1-1-3.9c-.48-2.44-1.44-5.85-2.4-9.75a131.77,131.77,0,0,0-12-27.79,156.75,156.75,0,0,0-16.8-24.86,98.44,98.44,0,0,0-9.12-9.75l.48-.49a13.32,13.32,0,0,1,3.36,2c1.92,1.46,5.28,3.41,8.64,5.85a101.13,101.13,0,0,1,10.08,10.24c.48.49.48,1,1,1.46h0a21.57,21.57,0,0,1,3.84,5.36h0l4.32,7.32c1.44,2.43,2.4,5.36,3.84,7.8s1.92,5.36,2.88,7.8C1488,1421.32,1488,1423.76,1488.94,1426.2Z"/></svg>