<?xml version="1.0" encoding="utf-8"?>
<!-- Generator: Adobe Illustrator 22.1.0, SVG Export Plug-In . SVG Version: 6.00 Build 0)  -->
<svg version="1.1" id="Layer_1" xmlns="http://www.w3.org/2000/svg" xmlns:xlink="http://www.w3.org/1999/xlink" x="0px" y="0px"
	 viewBox="0 0 2800 2800" style="enable-background:new 0 0 2800 2800;" xml:space="preserve">
<style type="text/css">
	.st0{fill:#5BC0EB;}
</style>
<title>splashscreen</title>
<rect x="-48" y="-44" class="st0" width="2900" height="2900"/>
<path d="M1540.8,1421.8c2-1.4,3.8-3,5.3-4.9c4.5-4.5,8.4-9.6,11.5-15.1c2.2-3.9,4.1-8,5.8-12.2c1.7-4.9,2.8-10,3.4-15.1
	c0.5-5.2,0.5-10.4,0-15.6c-0.5-5.4-1-10.2-1-14.6v-5.4l0,0v-7.3c0.6-4.1,1.4-8.2,2.4-12.2c1.1-4,2.3-7.9,3.8-11.7
	c0.6-1.9,1.4-3.7,2.4-5.4c0.7-1.7,1.5-3.3,2.4-4.9c1-1.5,1.4-3.4,2.4-4.9c0.8-1.4,1.5-2.8,1.9-4.4c1.4-2.9,2.4-4.9,3.4-7.3
	c1.9-3.9,3.4-6.3,3.4-6.3c-2.2,1-4.3,2.1-6.2,3.4c-2.4,1.2-4.6,2.7-6.7,4.4c-1.4,1-2.4,1.9-3.8,2.9c-1.6,1.2-3,2.5-4.3,3.9l-4.3,4.4
	c-1.6,1.7-3,3.5-4.3,5.4c-3,3.9-5.6,8.2-7.7,12.7c-2.5,5.1-4.3,10.5-5.3,16.1c-0.4,1.4-0.6,2.9-0.5,4.4l-0.5,2.4v10.7
	c0.5,5.8,1,10.7,1.4,15.6c0.5,4.4,1.4,9.3,1.4,13.2c0.5,3.9,0.5,7.8,0,11.7c0,3.9-1,7.8-1.4,11.2c-0.4,3.3-1,6.6-1.9,9.8
	c-0.5,2.9-1,5.8-1.4,7.8L1540.8,1421.8z"/>
<path d="M1275.8,1417.4c-0.9-3.5-2-6.9-3.4-10.2l-0.5-1.5c0-0.4-0.2-0.7-0.5-1v-1l0,0v-1c0-1-0.5-2-0.5-2.9c0.1-1-0.1-2-0.5-2.9
	c-0.5-4-0.5-8.1,0-12.2c0.1-4.4,0.4-8.8,1-13.2c1-8.8,2.4-18.5,2.4-29.3c0-5.4,0-10.2-0.5-16.1c-0.5-5.4-1.4-10.7-2.4-16.1
	l-4.3-16.1c-1.8-5.2-3.9-10.2-6.2-15.1l-7.2-14.6c-1.4-2.4-2.4-4.9-3.8-7.3s-2.9-4.9-4.3-6.8c-2.9-4.4-5.3-8.8-7.7-13.2
	s-4.8-8.8-6.7-13.2s-3.4-8.8-4.8-13.2s-2.4-8.8-4.3-14.1c-0.5-1.6-1.3-3.1-2.4-4.4c0-0.3-0.2-0.5-0.4-0.5l0,0l-1-1
	c-0.5,0-0.5-0.5-1-0.5h-0.5c0,0-1-0.5-0.5,0h-1c-1.3-0.1-2.6,0.1-3.8,0.5c-1.9,1-2.9,2-3.8,2.4c-0.9,0.8-1.7,1.8-2.4,2.9
	c-1.4,1.8-2.7,3.8-3.8,5.8c-1,1.9-2.1,3.6-3.4,5.4c-3.5,6.5-6.4,13.4-8.6,20.5c-1.9,6.3-3.4,11.7-4.8,16.6c-1,4.4-1.9,8.3-2.4,10.7
	c-0.3,1.3-0.4,2.6-0.5,3.9h0.5c0.4-1.2,0.9-2.3,1.4-3.4c1-2.4,2.4-5.8,3.8-10.2c1.9-4.4,3.8-9.8,6.7-15.1
	c3.1-6.4,6.6-12.6,10.6-18.5c2-3.4,4.4-6.5,7.2-9.3c0.5-0.6,1.2-1.1,1.9-1.5c1,3.9,1.9,8.8,2.9,13.2c1,5,2.4,9.9,4.3,14.6
	c3.8,9.8,9.1,19,14.4,28.3c2.8,4.4,5.4,8.9,7.7,13.7c2.5,4.6,4.8,9.3,6.7,14.1c4.3,9.2,7.7,18.9,10.1,28.8c1.4,4.9,1.9,9.8,2.9,14.6
	c0.5,4.9,1,9.8,1,14.6c0,9.8-0.5,19.5-1,28.8c-0.5,9,0,18,1.4,26.8c0,1,0.5,1.9,0.5,2.9c0.5,1,0.5,2,1,2.9v1l0,0v0.5l0.5,1
	c0,0.5,0.5,1,0.5,1.5l0.5,1.5c1.7,2.9,3.2,6,4.3,9.3c1.9,5.9,1.9,11.2,0.5,15.6c-1.1,3.3-2.7,6.5-4.8,9.3c-0.7,1-1.5,2-2.4,2.9
	c0.4,0,0.7-0.2,1-0.5l0.5-0.5l-1,1c0.4,0,0.7-0.2,1-0.5c0.5-0.5,1.4-1,1.9-2c2.7-2.6,4.9-5.5,6.7-8.8c0.5-1,1-2.4,1.4-3.4
	c0.5-1.5,0.5-2.9,1-4.4C1276.8,1423.8,1276.8,1420.8,1275.8,1417.4z"/>
<path d="M1259.5,1427.7c-2-1.3-4-2.8-5.8-4.4c-8.1-7.3-14.4-16.3-18.7-26.3c-2.3-4.8-3.8-9.9-4.3-15.1c-1-5.4-1-10.2-1.4-15.6v-20
	l0,0v-4.4c0-1-0.5-1.9-0.5-2.9c-0.5-3.9-1.9-7.8-2.9-11.7c-1.3-3.9-2.9-7.6-4.8-11.2c-1-1.7-1.8-3.5-2.4-5.4c-1-1.5-1.8-3.2-2.4-4.9
	c-1.6-2.9-3.2-5.8-4.8-8.8c-1.4-2.4-2.9-4.9-3.8-6.8c-1.3-2-2.4-4.1-3.4-6.3c0,0,2.4,1,6.7,2.9c1.9,1,4.3,2.4,7.2,3.9l4.3,2.9
	c1.4,1,2.9,2.4,4.3,3.4c1.5,1.6,3.1,3,4.8,4.4c1.7,1.5,3.3,3.1,4.8,4.9c3.3,3.8,6.2,7.9,8.6,12.2c2.9,4.4,4.8,9.8,6.2,15.6
	c0.5,1.5,0.5,2.9,1,4.4l0.5,2.4l0.5,1.9v8.8c0,5.8-0.5,10.7-0.5,15.6c-0.5,4.9-0.5,9.3-1,13.7c-0.1,3.9,0.2,7.9,1,11.7
	c0.5,3.9,1.4,7.8,1.9,11.2c1,3.4,1.4,6.8,2.4,9.8c0.8,2.6,1.4,5.2,1.9,7.8C1258.8,1423.5,1258.9,1425.6,1259.5,1427.7z"/>
<path d="M1530.7,1313.6c2.4-9.9,5.8-19.5,10.1-28.8c1.9-4.9,4.3-9.3,6.7-14.1c2.4-4.4,4.8-8.8,7.7-13.7c5.6-9,10.4-18.5,14.4-28.3
	c1.9-4.7,3.3-9.6,4.3-14.6c1-4.9,1.9-9.8,2.9-13.2v-0.5l0,0c0.5,0.5,1.4,1,1.9,2c2.4,2.9,4.8,6.3,7.2,9.3c4,5.9,7.5,12.1,10.6,18.5
	c2.9,5.8,4.8,11.2,6.7,15.1c1.9,4.4,2.9,7.8,3.8,10.2s1.4,3.4,1.4,3.4c0-1.3-0.2-2.6-0.5-3.9c-0.5-3.6-1.3-7.2-2.4-10.7
	c-3-12.8-7.5-25.2-13.4-37c-0.8-2-2-3.8-3.4-5.4c-1.1-2.1-2.4-4-3.8-5.8c-1-1-1.4-1.9-2.4-2.9c-1-1.2-2.3-2-3.8-2.4
	c-1.2-0.4-2.5-0.6-3.8-0.5h-1.4c-0.5,0-0.5,0.5-1,0.5c-0.5,0.5-1,0.5-1,1l-0.5,0.5c-1.1,1.3-1.9,2.8-2.4,4.4
	c-1.9,4.9-2.9,9.3-4.3,14.1c-1.4,4.4-2.9,8.8-4.8,13.2c-1.9,4.6-4.1,9-6.7,13.2c-2.4,4.4-5.3,8.8-7.7,13.2c-1.4,2.4-2.9,4.4-4.3,6.8
	c-1.5,2.3-2.7,4.8-3.8,7.3l-7.2,14.6c-2.4,4.9-4.3,10.2-6.2,15.1c-1.9,5.2-3.3,10.6-4.3,16.1c-1.3,5.3-2.1,10.7-2.4,16.1
	c-0.5,5.4-0.5,10.7-0.5,16.1c0.5,10.2,1.4,20,2.4,29.2c0.6,4.4,0.9,8.8,1,13.2v12.1c0.1,1-0.1,2-0.5,2.9c0,1-0.5,2-0.5,2.9v1l0,0v1
	c0,0.5,0,0.5-0.5,1l-0.5,1.5c-1.3,3.3-2.5,6.8-3.4,10.2c-0.9,3.2-1,6.5-0.5,9.8c0.1,1.5,0.4,3,1,4.4c0.5,1,1,2.4,1.4,3.4
	c1.5,3.4,3.8,6.5,6.7,8.8l1.9,2c0.3,0.3,0.6,0.5,1,0.5c-0.9-0.9-1.7-1.9-2.4-2.9c-2.1-2.8-3.7-5.9-4.8-9.3
	c-1.4-4.4-1.4-9.8,0.5-15.6c1.1-3.2,2.6-6.3,4.3-9.3l0.5-1.5c0-0.5,0.5-1,0.5-1.5l0.5-1v-0.5l0,0v-1c0.5-1,0.5-2,1-2.9
	c0-1,0.5-1.9,0.5-2.9c1.5-8.9,1.9-17.8,1.4-26.8c-0.5-9.3-1-19-1-28.8c0-4.9,0.5-9.8,1-14.6
	C1528.8,1323.3,1529.8,1318.5,1530.7,1313.6z"/>
<path d="M1126.5,1828.4v5.8h-52.4v-90.9h50.8v5.8h-45v45.8h34.5v6H1080v27.5L1126.5,1828.4z"/>
<path d="M1213.5,1828.3l12.7,16.7h-7.4l-10.3-13.6c-5.7,2.9-11.9,4.5-18.3,4.8h-1.7c-11.5-0.4-22.4-5.4-30.2-13.9
	c-17.5-18.8-17.5-48,0-66.8c7.8-8.4,18.7-13.4,30.2-13.9h1.7c11.5,0.5,22.3,5.5,30.2,13.9c17.4,18.9,17.4,47.9,0,66.8
	C1218.2,1824.5,1215.9,1826.5,1213.5,1828.3z M1227.5,1789c0-22.6-17.1-41-38.3-41.4c-21.2,0.4-38.2,18.8-38.2,41.4
	s17,40.9,38.2,41.4C1210.4,1829.8,1227.5,1811.4,1227.5,1789L1227.5,1789z"/>
<path d="M1289.7,1835.3c-16,0-28.9-13.2-28.9-29.4v-62.4h5.8v62.4c-0.4,12.8,9.7,23.4,22.4,23.8c12.8,0.4,23.4-9.7,23.8-22.4
	c0-0.5,0-0.9,0-1.4v-62.4h5.8v62.4C1318.6,1822,1305.7,1835.3,1289.7,1835.3z"/>
<path d="M1398.6,1828.4v5.8h-52.4v-90.9h50.8v5.8h-45v45.8h34.5v6H1352v27.5L1398.6,1828.4z"/>
<path d="M1466.4,1828.1l-0.8,0.8c-4.8,4.1-10.8,6.4-17.1,6.5h-0.6c-6.4,0.1-12.7-2.1-17.6-6.2c-4.3-3.6-7.1-8.7-7.9-14.3l5.7-0.9
	c0.6,4.2,2.8,8,6,10.6c7.9,6.6,20.3,6.5,28-0.4c4.3-4.3,6.6-10.2,6.3-16.2c-0.2-5.7-2.9-10.9-7.5-14.3c-4.9-3.6-9.6-4.7-14.2-5.8
	c-5.5-1.3-11.2-2.6-16.3-7.9c-4.9-5.1-7.5-11.2-7.3-17.3c0.3-5.6,2.8-10.9,6.9-14.7c4.8-4.3,11.1-6.6,17.6-6.5
	c6.5-0.1,12.8,2.3,17.6,6.6c3,2.7,5.2,6.1,6.4,9.9l-5.9,0.9c-0.9-2.4-2.4-4.6-4.3-6.4c-7.5-6.7-19.7-6.9-27.2-0.4
	c-3.1,2.7-5,6.6-5.2,10.8c-0.3,4.4,1.8,8.8,5.6,12.8s8.3,5.1,13.4,6.3s10.6,2.5,16.4,6.9c5.9,4.4,9.6,11.2,10,18.6
	C1474.6,1815.3,1471.8,1822.7,1466.4,1828.1z"/>
<path d="M1552.3,1748.9h-25.6v85.4h-5.7v-85.4h-25.6v-5.9h56.8L1552.3,1748.9z"/>
<path d="M1628.4,1828.4v5.8H1576v-90.9h50.8v5.8h-45v45.8h34.5v6h-34.5v27.5L1628.4,1828.4z"/>
<path d="M1692,1835.7h-1.7c-11.5-0.4-22.4-5.4-30.2-13.9c-17.5-18.8-17.5-48,0-66.8c7.8-8.5,18.7-13.5,30.2-13.9h1.7
	c11.5,0.5,22.3,5.5,30.2,13.9c17.4,18.9,17.4,47.9,0,66.8C1714.3,1830.2,1703.5,1835.2,1692,1835.7z M1691.1,1746.9
	c-21.2,0.5-38.2,18.9-38.2,41.4s17,41,38.2,41.5c21.2-0.5,38.3-18.9,38.3-41.5S1712.3,1747.4,1691.1,1746.9L1691.1,1746.9z"/>
<path d="M1394.4,956.2c-187.2,0-339.9,155-339.9,345.2s152.2,345.2,339.4,345.2h339.9v-345.2
	C1734.3,1110.8,1581.6,956.2,1394.4,956.2z M1102.5,1301.4c0-163.3,131.1-296.4,291.9-296.4s291.4,132.6,291.9,295.4
	c-3.4,54.6-15.4,99-32.2,135.5c-30.7,60.4-80.7,109.2-142.1,136.5c-34.2,14.2-70.6,22.6-107.5,24.9c-3.4,0-6.7,0.5-10.1,0.5
	C1233.5,1597.8,1102.5,1464.7,1102.5,1301.4z"/>
<path d="M1644,1288.2c-0.5-7.7-1.4-15.3-2.9-22.9c-1.5-7.4-3.4-14.8-5.8-21.9c-1-2.9-1.9-5.4-2.9-8.3c-1.4-4.9-3.4-10.2-5.3-15.1
	c-5.6-14.1-13.1-27.3-22.1-39.5c-4.6-6-9.5-11.7-14.9-17.1l-8.6-7.3l-2.4-1.5l-1-1l-0.5-0.5l-3.8-3.9l-3.4-2.9l-3.8,2
	c-0.3,0-0.5,0.2-0.5,0.5l0,0l-0.5,0.5l-0.5,0.5c-0.5,0.5-1,0.5-1,1c-0.5,0.5-1.4,1-1.9,2c-1,1-1.9,2.4-2.9,3.4c-0.5,0.5-1,1-1,1.5
	l-1,1.5c-1,1-1.9,2.4-2.9,3.4c-1.9,2.6-3.5,5.4-4.8,8.3c-1.4,2.9-1.9,5.8-2.9,8.8c-0.5,2.9-1.4,5.9-1.4,8.8l-0.5,3.9l-0.5,2
	l-0.5,1.9c-1,5-2.4,9.9-4.3,14.6l-5.8,14.6c-1.9,4.9-4.3,9.3-6.7,14.1c-1.4,2.4-2.4,4.4-3.8,6.8c-0.7,1.1-1.4,2.2-1.9,3.4
	c-0.8,1.2-1.5,2.5-1.9,3.9c-1.4,2.9-2.4,5.4-3.8,7.8c-1,2.4-1.9,4.9-3.4,7.8c-3.8,10.2-7.2,20.5-10.1,31.2
	c-1.4,5.4-2.9,10.7-3.8,16.1l-2.9,16.1c-0.5,5.4-1.4,10.2-2.4,15.6s-2.4,10.2-3.4,15.1c-1.3,5-2.9,9.8-4.8,14.6
	c-0.8,2.4-2,4.7-3.4,6.8c0,0.5-0.5,0.5-0.5,1c-28.8-38.5-59-27.8-59-27.8v0.5c-10.6-4.9-18.7-4.4-18.7-4.4
	c-2.9-2.4-25.9-19.5-54.7-11.7c-18.7,4.9-34.1,19-42.2,37.1c0-0.5-0.5-1-0.5-1.5c-1.9-4.9-3.4-9.8-4.8-14.6s-2.4-10.2-3.4-15.1
	c-1-5.4-1.9-10.2-2.4-15.6c-1-5.4-1.4-10.7-2.9-16.1c-1-5.4-2.4-10.7-3.8-16.1c-2.9-10.7-6.2-21-10.1-31.2c-1-2.4-1.9-4.9-3.4-7.8
	c-1-2.4-2.4-4.9-3.8-7.8c-0.8-1.2-1.5-2.5-1.9-3.9c-0.7-1.1-1.4-2.2-1.9-3.4c-1.4-2.4-2.4-4.4-3.8-6.8c-2.5-4.6-4.8-9.3-6.7-14.1
	c-1.9-4.9-4.3-9.8-5.8-14.6c-1.9-4.7-3.3-9.6-4.3-14.6l-0.5-1.9l-0.5-2l-0.5-3.9l-1.4-8.8c-1-2.9-1.4-5.9-2.9-8.8
	c-1.4-2.9-3-5.6-4.8-8.3c-0.8-1.2-1.8-2.4-2.9-3.4l-1-1.5c-0.5-0.5-1-1-1-1.5c-1-1-1.9-2.4-2.9-3.4l-1.9-2l-1-1l-0.5-0.5l-0.5-0.5
	l-0.5-0.5l-3.8-2l-3.4,2.9l-3.8,3.9l-0.5,0.5l-1,1l-2.4,1.5l-8.6,7.3c-5.3,5.4-10.6,10.7-14.9,17.1c-9,12.2-16.4,25.4-22.1,39.5
	c-2,4.9-3.8,10-5.3,15.1c-1,2.9-1.9,5.4-2.9,8.3c-2.4,7.2-4.3,14.5-5.8,21.9c-1.5,7.6-2.4,15.2-2.9,22.9c0,3.9-0.5,7.8-0.5,11.7v5.8
	l0.5,5.8v2.9l0.5,2.9l0.5,5.4v2.9l0.5,2.9l0.5,2.9l0.5,2.9c-0.1,0.5,0.1,1.1,0.5,1.5l1.4,13.2v3.9l0.5,5.4c0,2,0.5,3.4,0.5,5.4
	l1.4,10.2l1,4.9l1,4.9l2.9,10.2c1.3,3.3,2.6,6.5,3.8,9.8l1.9,4.9c0.7,1.7,1.5,3.3,2.4,4.9c1.4,2.9,3.4,6.3,4.8,9.3l5.8,8.8
	c1.9,2.9,4.3,5.4,6.2,8.3l3.4,3.9c1,1.5,2.4,2.4,3.4,3.9l3.8,3.9c1.4,1,2.4,2.4,3.8,3.4c2.4,2.4,5.3,4.4,7.7,6.8
	c2.1,1.8,4.4,3.4,6.7,4.9c0.5,1.5,0.5,2.9,1,4.9c0,1,0.5,2.4,0.5,3.4l0.5,3.4c1,4.4,1.9,9.3,2.9,13.7l1.4,6.8c0.5,1.5,0.5,2.4,1,3.9
	c0,0-3.4,32.7-2.9,45.3c0,5.8,2.9-1.5,5.3-11.7c0-0.5,0-0.5,0.5-1c1-2.4,1.4-5.8,2.9-9.8c1-2.9,1.4-6.3,2.4-9.8l1-3.4v-1
	c0.5-2,1-3.4,1.4-5.4l0.5-1.5l0,0v-0.5c0.5-2.4,1.4-4.9,1.9-7.8c0.5-2.4,1.3-4.7,2.4-6.8c0-0.5,0.5-1,0.5-1.5s0.5-1,0.5-1.5l1-1
	l1.4-1.5c1.6-2,3-4.1,4.3-6.3c1.4-1.9,2.4-3.9,3.8-5.8c1.9-3.9,3.8-6.8,4.8-9.3c0.5-0.9,0.9-1.9,1-2.9c0-0.4,0.2-0.7,0.5-1
	c-0.4,0-0.7,0.2-1,0.5c-0.5,0.5-1.4,1-2.4,2c-1.9,1.5-4.8,3.9-7.7,6.3c-1.4,1.5-3.4,2.9-4.8,4.4c-1.9,1.5-3.4,3.4-5.3,4.9l-1.4,1.5
	l-1.9,2c-1,1.4-1.8,2.8-2.4,4.4c0,0.5,0,0.5-0.5,1l-1.4-14.6v-1.5c0-1.5-0.5-2.9-0.5-4.4l0,0v-3.9l0,0l-0.5-3.4l-1.4-0.5
	c-1.7-0.5-3.3-1.1-4.8-2l0,0c-1-1-1.9-1.5-2.4-2.4c-2.4-2.4-4.8-4.4-6.7-6.8l-3.4-3.4l-3.4-3.4c-1.1-1.2-2-2.5-2.9-3.9l-2.9-3.9
	c-1.9-2.4-3.8-4.9-5.8-7.8c-1-1.5-1.9-2.4-2.9-3.9l-2.4-3.9c-1-1.5-1.4-2.9-2.4-4.4s-1.4-2.9-2.4-4.4s-1.4-2.9-2.4-4.4l-1.9-4.4
	c-1.5-2.8-2.8-5.8-3.8-8.8c-1-2-1.4-4.4-2.4-6.3l0,0c2.3,4.7,4.8,9.3,7.7,13.7c3.9,6.5,8.2,12.7,13,18.5s9.6,11.2,14.9,16.6
	c5.2,5.3,10.9,10.2,16.8,14.6c5.8,4.4,12,8.8,18.2,12.7h0.5l0.5-1c-5.8-4.5-11.2-9.4-16.3-14.6c-5.3-5-10.3-10.4-14.9-16.1
	c-4.8-5.4-9.1-11.1-13-17.1c-4.3-5.8-7.7-12.2-11-18.5s-6.7-12.7-9.1-19.5c-5.7-13.2-9.6-27.2-11.5-41.4l-0.5-2.4l-0.5-2.4l-0.5-5.4
	l-0.5-5.4V1295c0-2.9,0.5-5.8,0.5-8.8l0.5-5.4l0.5-5.4c0.4-3.6,1.1-7.2,1.9-10.7c0.5-3.4,1.4-6.8,1.9-10.2c1-3.4,1.4-6.8,2.9-10.2
	c0.6-1.2,0.9-2.6,1-3.9c1.4-4.9,3.4-9.3,5.3-14.1c5.4-12.9,12-25.3,19.7-37c0.5-0.5,1-1,1-1.5c4.2-5.5,8.9-10.8,13.9-15.6
	c2.4-2.4,5.3-4.4,7.7-6.8l1.9-1.5l1-1l1-1l1,1l1.4,1.5l1.4,1.5c1,1,1.4,2,2.4,2.9c2.9,3.4,4.3,7.8,5.8,12.2l1.4,7.3l0.5,3.9l0.5,2
	l0.5,2.4c1.2,5.5,2.8,10.8,4.8,16.1c1.8,5.2,3.9,10.2,6.2,15.1c2.4,4.9,4.8,9.8,7.7,14.6l4.3,7.3c0.6,1.2,1.4,2.4,2.4,3.4
	c0.5,1,1.4,2.4,1.9,3.4c1,2,2.4,4.4,3.4,6.8l2.9,7.3l5.8,14.6c1.4,4.9,3.4,9.8,4.8,15.1c1.4,4.9,2.9,10.2,3.8,15.1
	c1.4,5.1,2.4,10.3,2.9,15.6c0.5,1.9,1,4.4,1.4,6.3c0.6,3.4,0.9,6.8,1,10.2c0.5,5.4,1.4,10.7,2.4,16.1c1.3,5.3,3.4,10.4,6.2,15.1
	c1.5,2.3,3.3,4.5,5.3,6.3c0,0.5,0.5,0.5,0.5,1l0,0c-0.9,2.7-1.6,5.5-1.9,8.3c0,0-12.5,13.2-16.3,37.5c-4.3,24.4-50.9,60.9-50.9,60.9
	s18.7,5.8,37.9-9.3c0,0-18.7,28.3-32.7,36.1c23.6,5.2,48.2,4.5,71.5-2c8.6,23.9,23.5,77.5-5.3,113.1c0,0,43.7-15.1,78.3-60
	c32.2-12.2,58.6-38,71.5-73.1c11,36.1,2.9,75.1,2.9,75.1c46.6-32.7,68.7-99,37-165.8c-3-6.2-6.4-12.2-10.1-18c0.3,0,0.5-0.2,0.5-0.5
	l0,0c0.5-0.5,1-1.5,1.4-2c0-0.5,0.5-0.5,0.5-1c2-1.9,3.8-4,5.3-6.3c2.9-4.7,5-9.8,6.2-15.1c1.3-5.3,2.1-10.7,2.4-16.1
	c0.6-3.4,0.9-6.8,1-10.2c0.5-2,1-4.4,1.4-6.3c1-5.4,1.9-10.2,2.9-15.6c1-4.9,2.4-10.2,3.8-15.1s3.4-10.2,4.8-15.1
	c1.9-4.9,3.4-9.8,5.8-14.6l2.9-7.3c1-2.4,2.4-4.9,3.4-6.8c0.5-1,1.4-2.4,1.9-3.4c1-1,1.4-2.4,2.4-3.4l4.3-7.3
	c2.9-4.9,5.3-9.8,7.7-14.6s4.3-10.2,6.2-15.1c1.9-5.3,3.5-10.6,4.8-16.1l0.5-2.4l0.5-2l0.5-3.9c0.5-2.4,1-4.9,1.4-7.3
	c1.4-4.9,2.9-8.8,5.8-12.2c0.7-1.1,1.5-2.1,2.4-2.9l1.4-1.5l1.4-1.5c0-0.5,0.5-0.5,1-1l1,1l1,1l1.9,1.5c2.8,2,5.4,4.3,7.7,6.8
	c5,4.9,9.7,10.1,13.9,15.6c1.9,2.9,3.8,5.4,5.8,8.3v0.5c0.5,0.5,1,1.5,1.4,2c5,8.4,9.4,17,13.4,25.8c2.4,6.3,4.8,13.2,6.7,19.5
	l2.9,10.2c0.5,3.4,1.4,6.8,1.9,10.2s1.4,6.8,1.9,10.7l0.5,5.4l0.5,5.4c0.5,3.4,0.5,7.3,1,10.7c0,2.9,0.5,5.8,0.5,8.8v9.8l-0.5,5.4
	l-0.5,5.4l-0.5,2.4l-0.5,2.4c-1,6.8-2.9,14.1-4.3,21c-2,7-4.4,13.8-7.2,20.5c-2.9,6.8-5.8,13.2-9.1,19.5s-7.2,12.7-11,18.5
	c-4.3,5.8-8.6,11.7-13,17.1c-4.8,5.4-9.6,10.7-14.9,16.1c-5.1,5.3-10.5,10.1-16.3,14.6l0.5,1c6.2-3.9,12.5-7.8,18.2-12.7
	c5.8-4.4,11.5-9.8,16.8-14.6c5.3-5.4,10.1-10.7,14.9-16.6s9.1-12,13-18.5c2.8-4.4,5.4-8.9,7.7-13.7l-1.4,4.4c0,0.5-0.5,1-0.5,2
	c-1.1,3-2.4,5.9-3.8,8.8l-1.9,4.4c-0.6,1.6-1.4,3-2.4,4.4c-1,1.5-1.4,2.9-2.4,4.4s-1.4,2.9-2.4,4.4l-2.4,3.9c-1,1.5-1.9,2.4-2.9,3.9
	c-1.9,2.9-3.8,5.4-5.8,7.8l-2.9,3.9c-1,1.5-1.9,2.4-2.9,3.9l-3.4,3.4l-3.4,3.4c-2.4,2.4-4.8,4.4-6.7,6.8c-0.5,0.6-1.2,1.1-1.9,1.5
	c-0.5,0-1,0.5-1.4,0.5c-1.5,0.9-3.1,1.5-4.8,2l-1.4,0.5v1.5c-0.5,8.8-1.4,17.6-2.4,25.8l0,0c-0.6-1.6-1.4-3-2.4-4.4l-1.9-2l-1.4-1.5
	c-2.1-1.5-4-3.2-5.8-5c-1.7-1.3-3.3-2.8-4.8-4.4c-2.4-2.3-5-4.4-7.7-6.3c-1-1-1.9-1.5-2.4-2c-0.3-0.3-0.6-0.5-1-0.5
	c0,0.4,0.2,0.7,0.5,1c0.5,0.5,0.5,1.5,1,2.9c1.3,3.2,2.9,6.3,4.8,9.3c1.1,2.1,2.4,4,3.8,5.9c1.6,2,3,4.1,4.3,6.3l1.4,1.5l1,1
	c0,0.5,0.5,1,0.5,1.5c0.4,0.4,0.5,0.9,0.5,1.5c0.9,2,1.6,4.1,1.9,6.3c0.5,3.4,6.7,37,2.4,47.8c-3.8,9.8,6.7,9.3,8.6-5.4v-0.5
	c0.2-1,0.4-1.9,0.5-2.9c0.5-2.4,1-5.8,1.4-10.2c0.5-4.9,0.5-9.8,0-14.6c-0.1-2.8-0.5-5.6-1-8.3v-0.5c0-1,0.5-2.4,0.5-3.4l1.4-6.8
	c1-4.4,1.9-9.3,2.9-13.7l0.5-3.4c0-1,0.5-2.4,0.5-3.4c0.5-1.5,0.5-2.9,1-4.9c2.4-1.5,4.8-3.4,6.7-4.9c2.8-2,5.4-4.3,7.7-6.8
	c1.4-1,2.4-2.4,3.8-3.4l3.8-3.9c1.3-1.2,2.4-2.5,3.4-3.9l3.4-3.9c1.9-2.9,4.3-5.4,6.2-8.3l5.8-8.8c1.9-2.9,3.5-6,4.8-9.3
	c0.9-1.6,1.7-3.2,2.4-4.9l1.9-4.9c0.5-1.5,1.4-3.4,1.9-4.9c0.4-1.7,1.1-3.3,1.9-4.9l2.9-10.2l1-4.9l1-4.9l1.4-10.2
	c0-2,0.5-3.4,0.5-5.4l0.5-5.4v-3.9l1.3-13.2c0-0.5,0.5-1,0.5-1.5l0.5-2.9l0.5-2.9l0.5-2.9v-2.9l0.5-5.4l0.5-2.9v-2.9l0.5-5.8v-5.8
	C1644.5,1296,1644,1292.1,1644,1288.2z M1369.4,1450.1c-1.9,3.4-4,6.6-6.2,9.8c-2.9,3.9-6.2,8.3-10.1,13.2c-1.9,2.4-4.3,4.4-6.2,6.8
	s-4.8,4.4-7.2,6.8c-4.8,4.2-9.9,7.9-15.4,11.2c-4.8,2.7-9.8,5.2-14.9,7.3c-4.9,1.9-10.1,3.3-15.4,3.9v-0.5c1.5-0.6,2.9-1.2,4.3-1.9
	c3.5-1.5,6.9-3.3,10.1-5.4c4.5-2.7,8.8-5.6,13-8.8c4.9-3.5,9.5-7.2,13.9-11.2c2.4-1.8,4.7-4,6.6-6.3c1.9-2.4,4.3-3.9,6.2-6.3
	c1.9-1.9,4.3-3.9,5.8-5.8l5.3-5.4l8.2-8.3c1-1.1,2.2-2.1,3.4-2.9l0.5,0.5C1371.8,1446.2,1370.8,1447.7,1369.4,1450.1z
	 M1373.7,1351.6h-5.7c-2.3-0.1-4.6,0.2-6.7,1c-2.5,0.4-4.9,1.1-7.2,2c-2.4,1-4.8,1.5-7.2,2.9c-2.5,1-4.8,2.5-6.7,4.4
	c-2.2,1.5-4.3,3.1-6.2,4.9c-1.9,1.8-3.7,3.8-5.3,5.8c-2.9,3.6-5.6,7.3-8.2,11.2c-2.4,3.8-4.3,7.9-5.8,12.2h-0.5v-1.5
	c0-0.8,0.1-1.7,0.5-2.4c0.5-2.4,1-6.3,2.9-10.2c1.8-4.7,4.2-9.1,7.2-13.2c1.4-2.4,3.4-4.4,5.3-6.8c2.4-1.9,4.3-4.4,6.7-5.8
	c4.8-3.4,10.6-6.3,15.8-7.3c2.9-1,5.3-1,8.2-1.5c2.4-0.5,4.8,0,7.2,0c3.5,0.1,6.9,0.9,10.1,2.4c2.4,1,3.8,1.5,3.8,1.5v0.5
	c-1.3,0-2.6-0.2-3.8-0.5C1376.7,1351.6,1375.2,1351.7,1373.7,1351.6z M1417.4,1459.8c-0.5,4.4-1,8.8-1.4,13.7
	c-1,4.4-1.4,9.3-2.4,13.7s-1.9,9.3-3.4,13.7s-2.9,8.8-4.3,12.7c-2.9,7.6-6.5,14.9-10.6,21.9c-3.9,6.7-8.4,13.1-13.4,19l-0.5-0.5
	c0,0,1-2,3.4-5.8c1.9-3.4,4.3-8.8,7.2-15.1c3.2-7.1,6-14.4,8.2-21.9c1.6-4.1,2.8-8.4,3.8-12.7c1.4-4.4,1.9-8.8,2.9-13.2l2.9-13.2
	l1.4-13.2c0.1-4.1,0.4-8.2,1-12.2c0.4-3.7,0.5-7.5,0.5-11.2c0-3.4,0.5-6.8,0.5-9.8V1412h0.5c0,0,0.5,2.4,1,6.3
	c0.5,1.9,0.5,4.4,1,7.3s0.5,5.8,1,9.8c0,3.4,0.5,7.3,0.5,11.2C1417.4,1451,1417.5,1455.4,1417.4,1459.8L1417.4,1459.8z
	 M1488.9,1426.2c0.5,2.2,0.9,4.5,1,6.8c0.4,3.4,0.5,6.8,0.5,10.2c0,1.3-0.1,2.6-0.5,3.9h-0.5c-0.4-1.3-0.7-2.6-1-3.9
	c-0.5-2.4-1.4-5.8-2.4-9.8c-2.9-9.7-6.9-19-12-27.8c-4.8-8.8-10.4-17.1-16.8-24.9c-2.8-3.5-5.9-6.7-9.1-9.8l0.5-0.5
	c1.2,0.5,2.3,1.2,3.4,2c1.9,1.5,5.3,3.4,8.6,5.8c3.6,3.2,7,6.6,10.1,10.2c0.5,0.5,0.5,1,1,1.5l0,0c1.5,1.6,2.8,3.4,3.8,5.4l0,0
	l4.3,7.3c1.4,2.4,2.4,5.4,3.8,7.8s1.9,5.4,2.9,7.8C1488,1421.3,1488,1423.8,1488.9,1426.2z"/>
</svg>
